<?xml version="1.0" encoding="UTF-8" standalone="no"?>
<svg xmlns="http://www.w3.org/2000/svg" viewBox="0 0 24 24">
  <path
     d="M 12.039062 1.1191406 A 7.1192288 2.1186509 0 0 0 5.1308594 3.2363281 A 7.1192288 2.1186509 0 0 0 5.1464844 3.3769531 L 5.1464844 21.408203 A 7.1120348 2.1589401 0 0 0 5.1386719 21.521484 A 7.1120348 2.1589401 0 0 0 12.28125 23.662109 A 7.1120348 2.1589401 0 0 0 19.363281 21.501953 L 19.361328 21.464844 A 7.1120348 2.1589401 0 0 0 19.355469 21.410156 L 19.355469 3.3710938 A 7.1192288 2.1186509 0 0 0 19.369141 3.2363281 A 7.1192288 2.1186509 0 0 0 12.25 1.1191406 A 7.1192288 2.1186509 0 0 0 12.039062 1.1191406 z M 12.210938 1.5371094 A 6.1346917 1.5684524 0 0 1 12.339844 1.5371094 A 6.1346917 1.5684524 0 0 1 18.474609 3.1054688 A 6.1346917 1.5684524 0 0 1 12.339844 4.6738281 A 6.1346917 1.5684524 0 0 1 6.2050781 3.1054688 A 6.1346917 1.5684524 0 0 1 12.210938 1.5371094 z "
     style="stroke-width:1.00707"
     id="rect853" />
  <path
     d="M 16.262687,3.1499903 A 4.029851,0.89777082 0 0 1 12.250138,4.0477529 4.029851,0.89777082 0 0 1 8.2031334,3.1576994 4.029851,0.89777082 0 0 1 12.180931,2.252294 4.029851,0.89777082 0 0 1 16.262092,3.1345728"
     sodipodi:arc-type="arc"
     sodipodi:open="true"
     sodipodi:end="6.2660113"
     sodipodi:start="0"
     sodipodi:ry="0.89777082"
     sodipodi:rx="4.029851"
     sodipodi:cy="3.1499903"
     sodipodi:cx="12.232836"
     sodipodi:type="arc"
     id="path837" />
</svg>
