<?xml version="1.0" encoding="UTF-8" standalone="no"?>
<svg xmlns="http://www.w3.org/2000/svg" viewBox="0 0 348 349">
  <path
     id="path837"
     d="m 51.251796,59.057994 -2.091131,241.814306 82.599715,12.25788 23.00244,33.43054 58.55169,-27.85878 88.8731,3.34305 1.04557,-242.928669 -10.45565,-7.80046 1.19261,-51.895717 -91.11129,9.550354 -72.14404,-24.5157358 -4.18226,35.6592528 z"
     />
  <path
     id="path839"
     d="M 58.579178,63.083904 56.488047,296.18134 128.32148,306.91426 129.06466,74.676726 Z"
     style="fill:#ffffff" />
  <path
     id="path841"
     d="m 138.03377,82.459378 -0.14695,230.005752 14.94001,20.15855 -0.15514,-231.22032 z"
     style="fill:#ffffff" />
  <path
     id="path843"
     d="m 158.94509,102.5177 1.94418,232.64814 47.64648,-22.03258 0.29392,-229.092419 z"
     style="fill:#ffffff" />
  <path
     id="path845"
     d="m 217.49678,80.230672 -1.34771,232.559628 79.00527,4.11443 1.49483,-234.288618 z"
     style="fill:#ffffff" />
  <path
     id="path847"
     d="m 264.24489,53.054742 22.39799,12.659856 1.64191,-34.048284 z"
     style="fill:#ffffff" />
</svg>
