<?xml version="1.0" encoding="UTF-8" standalone="no"?>
<svg xmlns="http://www.w3.org/2000/svg" viewBox="0 0 2253.2737 3444.0955">
  <path
     d="M 1145.3606,95.817173 A 972.38912,370.2986 0 0 0 172.96891,466.1201 v 2378.7931 a 972.38912,370.2986 0 0 0 972.39169,370.2858 972.38912,370.2986 0 0 0 972.3915,-370.2858 V 466.1201 A 972.38912,370.2986 0 0 0 1145.3606,95.817173 Z m 0,82.297107 A 871.16345,287.99315 0 0 1 2016.5296,466.1201 871.16345,287.99315 0 0 1 1145.3606,754.10873 871.16345,287.99315 0 0 1 274.19151,466.1201 871.16345,287.99315 0 0 1 1145.3606,178.11428 Z"
     id="path1" />
  <ellipse
     ry="211.88451"
     rx="732.8642"
     transform="scale(1,-1)"
     cy="-461.15961"
     cx="1147.9296"
     id="path2" />
</svg>
