<?xml version="1.0" encoding="UTF-8" standalone="no"?>
<svg xmlns="http://www.w3.org/2000/svg" viewBox="0 0 24 24">
  <rect
     y="3.477778"
     x="5.1460176"
     height="17.953636"
     width="14.209457"
     id="rect853" />
  <ellipse
     ry="2.1186509"
     rx="7.1192288"
     cy="3.2369421"
     cx="12.250745"
     id="path834" />
  <path
     d="m 19.362781,21.502497 a 7.1120348,2.1589401 0 0 1 -7.081491,2.15892 7.1120348,2.1589401 0 0 1 -7.1423167,-2.140377 7.1120348,2.1589401 0 0 1 7.0201437,-2.177304 7.1120348,2.1589401 0 0 1 7.202614,2.121675"
     sodipodi:arc-type="arc"
     sodipodi:open="true"
     sodipodi:end="6.2660066"
     sodipodi:start="0"
     sodipodi:ry="2.1589401"
     sodipodi:rx="7.1120348"
     sodipodi:cy="21.502497"
     sodipodi:cx="12.250746"
     sodipodi:type="arc"
     id="path834-5" />
  <ellipse
     ry="1.5684524"
     rx="6.1346917"
     cy="3.1046631"
     cx="12.340174"
     id="path855"
     style="fill:#ffffff" />
  <path
     d="M 16.262687,3.1499903 A 4.029851,0.89777082 0 0 1 12.250138,4.0477529 4.029851,0.89777082 0 0 1 8.2031334,3.1576994 4.029851,0.89777082 0 0 1 12.180931,2.252294 4.029851,0.89777082 0 0 1 16.262092,3.1345728"
     sodipodi:arc-type="arc"
     sodipodi:open="true"
     sodipodi:end="6.2660113"
     sodipodi:start="0"
     sodipodi:ry="0.89777082"
     sodipodi:rx="4.029851"
     sodipodi:cy="3.1499903"
     sodipodi:cx="12.232836"
     sodipodi:type="arc"
     id="path837" />
</svg>
