<?xml version="1.0" encoding="UTF-8" standalone="no"?>
<svg xmlns="http://www.w3.org/2000/svg" viewBox="0 0 24 24">
  <path
     d="M 12.232388,1.6348981 A 7.5474573,2.4236941 0 0 0 4.6849121,4.0586211 V 19.628397 a 7.5474573,2.4236941 0 0 0 7.5474759,2.423611 7.5474573,2.4236941 0 0 0 7.547476,-2.423611 V 4.0586211 a 7.5474573,2.4236941 0 0 0 -7.547476,-2.423723 z m 0,0.5386556 a 6.7617672,1.884985 0 0 1 6.761811,1.8850674 6.7617672,1.884985 0 0 1 -6.761811,1.884956 6.7617672,1.884985 0 0 1 -6.7618096,-1.884956 6.7617672,1.884985 0 0 1 6.7618096,-1.8850674 z"
     id="path1" />
</svg>
