<?xml version="1.0" standalone="no"?>
<!DOCTYPE svg PUBLIC "-//W3C//DTD SVG 20010904//EN"
 "http://www.w3.org/TR/2001/REC-SVG-20010904/DTD/svg10.dtd">
<svg version="1.0" xmlns="http://www.w3.org/2000/svg"
 width="348.000000pt" height="349.000000pt" viewBox="0 0 348.000000 349.000000"
 preserveAspectRatio="xMidYMid meet">
<metadata>
Created by potrace 1.16, written by Peter Selinger 2001-2019
</metadata>
<g transform="translate(0.000000,349.000000) scale(0.100000,-0.100000)"
fill="#000000" stroke="none">
<path d="M1460 3144 c-273 -38 -475 -116 -540 -211 l-23 -34 7 -1052 c6 -822
11 -1059 21 -1083 38 -91 225 -179 485 -226 98 -18 153 -21 370 -21 217 0 272
3 370 21 259 47 437 129 486 224 13 25 16 171 21 1078 5 844 4 1054 -7 1079
-36 87 -211 166 -480 217 -122 23 -568 28 -710 8z"/>
</g>
</svg>
