<?xml version="1.0" encoding="UTF-8" standalone="no"?>
<svg
   xmlns:osb="http://www.openswatchbook.org/uri/2009/osb"
   xmlns:dc="http://purl.org/dc/elements/1.1/"
   xmlns:cc="http://creativecommons.org/ns#"
   xmlns:rdf="http://www.w3.org/1999/02/22-rdf-syntax-ns#"
   xmlns:svg="http://www.w3.org/2000/svg"
   xmlns="http://www.w3.org/2000/svg"
   xmlns:xlink="http://www.w3.org/1999/xlink"
   xmlns:sodipodi="http://sodipodi.sourceforge.net/DTD/sodipodi-0.dtd"
   xmlns:inkscape="http://www.inkscape.org/namespaces/inkscape"
   version="1.0"
   width="348.000000pt"
   height="349.000000pt"
   viewBox="0 0 348.000000 349.000000"
   preserveAspectRatio="xMidYMid meet"
   id="svg6"
   sodipodi:docname="type_cylinder.svg"
   inkscape:version="1.0 (4035a4fb49, 2020-05-01)">
  <metadata
     id="metadata12">
    <rdf:RDF>
      <cc:Work
         rdf:about="">
        <dc:format>image/svg+xml</dc:format>
        <dc:type
           rdf:resource="http://purl.org/dc/dcmitype/StillImage" />
      </cc:Work>
    </rdf:RDF>
  </metadata>
  <defs
     id="defs10">
    <linearGradient
       osb:paint="solid"
       id="linearGradient1793">
      <stop
         id="stop1791"
         offset="0"
         style="stop-color:#000000;stop-opacity:1;" />
    </linearGradient>
    <linearGradient
       gradientUnits="userSpaceOnUse"
       y2="232.28418"
       x2="349.19141"
       y1="232.28418"
       x1="114.80859"
       id="linearGradient1795"
       xlink:href="#linearGradient1793"
       inkscape:collect="always" />
  </defs>
  <sodipodi:namedview
     pagecolor="#ffffff"
     bordercolor="#666666"
     borderopacity="1"
     objecttolerance="10"
     gridtolerance="10"
     guidetolerance="10"
     inkscape:pageopacity="0"
     inkscape:pageshadow="2"
     inkscape:window-width="1600"
     inkscape:window-height="837"
     id="namedview8"
     showgrid="false"
     inkscape:snap-smooth-nodes="true"
     inkscape:snap-global="true"
     inkscape:zoom="1.0143266"
     inkscape:cx="-11.296414"
     inkscape:cy="222.06516"
     inkscape:window-x="-8"
     inkscape:window-y="-8"
     inkscape:window-maximized="1"
     inkscape:current-layer="g4"
     inkscape:document-rotation="0" />
  <g
     transform="translate(0.000000,349.000000) scale(0.100000,-0.100000)"
     fill="#000000"
     stroke="none"
     id="g4">
    <path
       style="color:#000000;overflow:visible;opacity:0.99500002;fill:url(#linearGradient1795);fill-opacity:1;stroke:none;stroke-width:1.88976407;stroke-linecap:round;stroke-linejoin:round;stroke-miterlimit:4;stroke-dasharray:none;stroke-opacity:1"
       d="M 232 53.943359 A 117.19111 42.341312 0 0 0 114.80859 96.285156 L 114.80859 368.28516 A 117.19111 42.341312 0 0 0 232 410.625 A 117.19111 42.341312 0 0 0 349.19141 368.28516 L 349.19141 96.285156 A 117.19111 42.341312 0 0 0 232 53.943359 z M 232 63.353516 A 104.99152 32.930203 0 0 1 336.99219 96.285156 A 104.99152 32.930203 0 0 1 232 129.21484 A 104.99152 32.930203 0 0 1 127.00781 96.285156 A 104.99152 32.930203 0 0 1 232 63.353516 z "
       transform="matrix(7.4999999,0,0,-7.4999999,0,3490)"
       id="path4526" />
  </g>
</svg>
