<?xml version="1.0" encoding="UTF-8" standalone="no"?>
<svg
   xmlns:dc="http://purl.org/dc/elements/1.1/"
   xmlns:cc="http://creativecommons.org/ns#"
   xmlns:rdf="http://www.w3.org/1999/02/22-rdf-syntax-ns#"
   xmlns:svg="http://www.w3.org/2000/svg"
   xmlns="http://www.w3.org/2000/svg"
   xmlns:sodipodi="http://sodipodi.sourceforge.net/DTD/sodipodi-0.dtd"
   xmlns:inkscape="http://www.inkscape.org/namespaces/inkscape"
   inkscape:version="1.0 (4035a4fb49, 2020-05-01)"
   sodipodi:docname="tool_icon.svg"
   id="svg96"
   preserveAspectRatio="xMidYMid meet"
   viewBox="0 0 348.000000 349.000000"
   height="349.000000pt"
   width="348.000000pt"
   version="1.0">
  <metadata
     id="metadata102">
    <rdf:RDF>
      <cc:Work
         rdf:about="">
        <dc:format>image/svg+xml</dc:format>
        <dc:type
           rdf:resource="http://purl.org/dc/dcmitype/StillImage" />
      </cc:Work>
    </rdf:RDF>
  </metadata>
  <defs
     id="defs100" />
  <sodipodi:namedview
     inkscape:current-layer="svg96"
     inkscape:window-maximized="1"
     inkscape:window-y="-8"
     inkscape:window-x="-8"
     inkscape:cy="218.25612"
     inkscape:cx="232"
     inkscape:zoom="1.4398281"
     showgrid="false"
     id="namedview98"
     inkscape:window-height="837"
     inkscape:window-width="1600"
     inkscape:pageshadow="2"
     inkscape:pageopacity="0"
     guidetolerance="10"
     gridtolerance="10"
     objecttolerance="10"
     borderopacity="1"
     bordercolor="#666666"
     pagecolor="#ffffff"
     inkscape:document-rotation="0" />
  <g
     id="g94"
     stroke="none"
     fill="#000000"
     transform="translate(0.000000,349.000000) scale(0.100000,-0.100000)"
     style="fill:#000080">
    <path
       id="path92"
       d="M1460 3144 c-273 -38 -475 -116 -540 -211 l-23 -34 7 -1052 c6 -822 11 -1059 21 -1083 38 -91 225 -179 485 -226 98 -18 153 -21 370 -21 217 0 272 3 370 21 259 47 437 129 486 224 13 25 16 171 21 1078 5 844 4 1054 -7 1079 -36 87 -211 166 -480 217 -122 23 -568 28 -710 8z"
       style="fill:#000080" />
  </g>
  <ellipse
     ry="27.347013"
     rx="88.031342"
     cy="57.558952"
     cx="177.62538"
     id="path104"
     style="fill:#000080;fill-rule:evenodd;stroke-width:3.74999996;stroke:#ffffff;stroke-opacity:1;stroke-miterlimit:4;stroke-dasharray:none;fill-opacity:1" />
</svg>
