<?xml version="1.0" encoding="UTF-8" standalone="no"?>
<svg xmlns="http://www.w3.org/2000/svg" viewBox="0 0 24 24">
    <path
       d="M 11.925781,0.21875 C 9.9626882,0.23607467 8.1996756,0.48042481 6.8867188,0.8828125 6.2302403,1.0840064 5.6844975,1.3213928 5.2675781,1.6210938 4.8506588,1.9207946 4.5219141,2.3270171 4.5214844,2.8359375 v 0.00195 c 0.029032,6.2450086 0.0173,12.6525645 0.00781,18.2832035 v 0.0059 0.0078 c 0.014486,0.518899 0.3568627,0.92713 0.7910156,1.232422 0.4341529,0.305292 1.0002924,0.546386 1.6796875,0.75 1.3587902,0.407227 3.1728075,0.647159 5.1718745,0.644531 1.999773,-0.0026 3.807438,-0.246787 5.15625,-0.658203 0.674406,-0.205708 1.236159,-0.449386 1.664063,-0.757813 0.427904,-0.308427 0.762697,-0.724811 0.761718,-1.244141 0.117858,-6.251838 -0.07767,-12.6706152 0.0059,-18.2578121 v -0.00391 -0.00586 C 19.758552,2.3146843 19.416855,1.906014 18.986328,1.6035156 18.555801,1.3010173 17.991844,1.0608279 17.314453,0.859375 15.960176,0.45661903 14.146825,0.21893399 12.142578,0.21875 c -0.07178,-3.1648e-4 -0.143065,-3.1648e-4 -0.214844,0 z m 0.177735,1.4179688 c 0.04207,-1.13e-4 0.08293,-1.13e-4 0.125,0 h 0.002 c 1.659449,-5.2e-6 3.163802,0.1746592 4.214843,0.4433593 0.525521,0.13435 0.938234,0.2974267 1.179688,0.4433594 0.241454,0.1459328 0.240245,0.2293096 0.240234,0.1816406 1.1e-5,-0.047669 0.0012,0.035708 -0.240234,0.1816407 -0.241454,0.1459326 -0.654167,0.3090092 -1.179688,0.4433593 -1.051042,0.2687 -2.555394,0.4433645 -4.214843,0.4433594 C 10.570972,3.7734427 9.0666671,3.5987781 8.015625,3.3300781 7.490104,3.195728 7.0773917,3.0326515 6.8359375,2.8867188 6.5944833,2.740786 6.5956921,2.657409 6.5957031,2.7050781 6.5957329,2.7523289 6.5929514,2.6725264 6.8261719,2.5292969 7.0593923,2.3860674 7.4601975,2.2256195 7.9726562,2.0917969 8.9975738,1.8241518 10.468832,1.6454975 12.103516,1.6367188 Z"
       id="CustomSupportCylinderIcon" />
</svg>
