<?xml version="1.0" encoding="UTF-8" standalone="no"?>
<svg xmlns="http://www.w3.org/2000/svg" viewBox="0 0 348 349">
  <path
     d="M 167.50977 3 L 115.60547 17.501953 L 115.60742 46.207031 L 53.503906 78.003906 L 25.001953 341.52148 L 119.50781 341.52148 L 162.50977 309.01953 L 162.5 308.92383 L 292.01758 310.01953 L 325.51953 291.51758 L 325.51953 3.5 L 167.50977 3 z M 309.99023 6.3730469 L 284.98828 14.873047 L 140.57227 15.021484 L 171.67383 6.3925781 L 309.99023 6.3730469 z M 322.51953 6.5 L 322.01953 289.01758 L 295.51758 304.01758 L 291.51758 17.501953 L 322.51953 6.5 z M 116.00781 50.287109 L 115.9082 62.013672 L 127.50781 62.003906 L 102.00586 75.503906 L 67.574219 75.494141 L 116.00781 50.287109 z M 131.50781 66.503906 L 158.00977 308.01953 L 121.00781 336.01953 L 103.50586 81.505859 L 131.50781 66.503906 z "
     style="display:inline"
     id="path1" />
</svg>
