<?xml version="1.0" encoding="UTF-8" standalone="no"?>
<svg xmlns="http://www.w3.org/2000/svg" viewBox="0 0 348 349">
  <path
     d="M 130.71484 4.4550781 L 126.5332 40.113281 L 51.251953 59.058594 L 49.160156 300.87305 L 131.75977 313.13086 L 154.76367 346.56055 L 213.31445 318.70117 L 302.1875 322.04492 L 303.23242 79.117188 L 292.77734 71.316406 L 293.9707 19.419922 L 202.85938 28.970703 L 130.71484 4.4550781 z M 288.28516 31.666016 L 286.64258 65.714844 L 264.24414 53.054688 L 288.28516 31.666016 z M 58.580078 63.083984 L 129.06445 74.675781 L 128.32227 306.91406 L 56.488281 296.18164 L 58.580078 63.083984 z M 217.49609 80.230469 L 296.64844 82.615234 L 295.1543 316.9043 L 216.14844 312.79102 L 217.49609 80.230469 z M 138.0332 82.458984 L 152.67188 101.4043 L 152.82617 332.62305 L 137.88672 312.46484 L 138.0332 82.458984 z M 208.83008 84.041016 L 208.53516 313.13281 L 160.88867 335.16602 L 158.94531 102.51758 L 208.83008 84.041016 z "
     id="path837" />
</svg>
