<?xml version="1.0" encoding="UTF-8" standalone="no"?>
<svg xmlns="http://www.w3.org/2000/svg" viewBox="0 0 24 24">
  <path
     id="Cylinder"
     d="m 12.039062,1.1191406 c -3.8472837,0.033953 -6.9072353,0.9717497 -6.9082026,2.1171875 0.029042,6.2472246 0.017294,12.6545729 0.00781,18.2851559 0.033187,1.188815 3.22625,2.145773 7.1425776,2.140625 3.917709,-0.005 7.084272,-0.97088 7.082031,-2.160156 0.117936,-6.238057 -0.07799,-12.6580963 0.0058,-18.2656249 C 19.366427,2.0668113 16.179888,1.1191547 12.25,1.1191406 c -0.07031,-3.1e-4 -0.140629,-3.1e-4 -0.210938,0 z m 0.171876,0.4179688 c 0.04297,-1.154e-4 0.08594,-1.154e-4 0.128906,0 3.387983,-1.04e-5 6.134564,0.7021561 6.134765,1.5683594 -2.01e-4,0.8662033 -2.746782,1.5683697 -6.134765,1.5683593 C 8.9518606,4.6738386 6.2052792,3.9716722 6.2050781,3.1054688 6.2045398,2.2519745 8.8733998,1.5550332 12.210938,1.5371094 Z" />
</svg>
