solid OpenSCAD_Model
  facet normal -1 0 0
    outer loop
      vertex -0.0500002 0.315688 -0.819623
      vertex -0.0500002 0.495 0
      vertex -0.0500002 0.495 -0.998935
    endloop
  endfacet
  facet normal -1 0 0
    outer loop
      vertex -0.0500002 0.153885 -0.661804
      vertex -0.0500002 0.495 0
      vertex -0.0500002 0.315688 -0.819623
    endloop
  endfacet
  facet normal -1 0 0
    outer loop
      vertex -0.0500002 0.0981308 -0.610135
      vertex -0.0500002 0.495 0
      vertex -0.0500002 0.153885 -0.661804
    endloop
  endfacet
  facet normal -1 0 0
    outer loop
      vertex -0.0500002 0.0688192 -0.585065
      vertex -0.0500002 0.495 0
      vertex -0.0500002 0.0981308 -0.610135
    endloop
  endfacet
  facet normal -1 0 0
    outer loop
      vertex -0.0500002 0.0500001 -0.570711
      vertex -0.0500002 0.495 0
      vertex -0.0500002 0.0688192 -0.585065
    endloop
  endfacet
  facet normal -1 0 0
    outer loop
      vertex -0.0500002 0.0363272 -0.561804
      vertex -0.0500002 0.495 0
      vertex -0.0500002 0.0500001 -0.570711
    endloop
  endfacet
  facet normal -1 0 0
    outer loop
      vertex -0.0500002 0.0254762 -0.556116
      vertex -0.0500002 0.495 0
      vertex -0.0500002 0.0363272 -0.561804
    endloop
  endfacet
  facet normal -1 0 0
    outer loop
      vertex -0.0500002 0.0162459 -0.552573
      vertex -0.0500002 0.495 0
      vertex -0.0500002 0.0254762 -0.556116
    endloop
  endfacet
  facet normal -1 0 0
    outer loop
      vertex -0.0500002 0.00791917 -0.550623
      vertex -0.0500002 0.495 0
      vertex -0.0500002 0.0162459 -0.552573
    endloop
  endfacet
  facet normal -1 0 0
    outer loop
      vertex -0.0500002 0 -0.55
      vertex -0.0500002 0.495 0
      vertex -0.0500002 0.00791917 -0.550623
    endloop
  endfacet
  facet normal -1 0 0
    outer loop
      vertex -0.0500002 -0.495001 0
      vertex -0.0500002 0 -0.55
      vertex -0.0500002 -0.00791927 -0.550623
    endloop
  endfacet
  facet normal -1 0 0
    outer loop
      vertex -0.0500002 -0.495001 0
      vertex -0.0500002 -0.00791927 -0.550623
      vertex -0.0500002 -0.016246 -0.552573
    endloop
  endfacet
  facet normal -1 0 0
    outer loop
      vertex -0.0500002 -0.495001 0
      vertex -0.0500002 -0.016246 -0.552573
      vertex -0.0500002 -0.0254763 -0.556116
    endloop
  endfacet
  facet normal -1 0 0
    outer loop
      vertex -0.0500002 -0.495001 0
      vertex -0.0500002 -0.0254763 -0.556116
      vertex -0.0500002 -0.0363273 -0.561804
    endloop
  endfacet
  facet normal -1 0 0
    outer loop
      vertex -0.0500002 -0.495001 0
      vertex -0.0500002 -0.0363273 -0.561804
      vertex -0.0500002 -0.0500002 -0.570711
    endloop
  endfacet
  facet normal -1 0 0
    outer loop
      vertex -0.0500002 -0.495001 0
      vertex -0.0500002 -0.0500002 -0.570711
      vertex -0.0500002 -0.0688193 -0.585065
    endloop
  endfacet
  facet normal -1 0 0
    outer loop
      vertex -0.0500002 -0.495001 0
      vertex -0.0500002 -0.0688193 -0.585065
      vertex -0.0500002 -0.098131 -0.610135
    endloop
  endfacet
  facet normal -1 0 0
    outer loop
      vertex -0.0500002 -0.495001 0
      vertex -0.0500002 -0.098131 -0.610135
      vertex -0.0500002 -0.153885 -0.661804
    endloop
  endfacet
  facet normal -1 0 0
    outer loop
      vertex -0.0500002 -0.495001 0
      vertex -0.0500002 -0.153885 -0.661804
      vertex -0.0500002 -0.315688 -0.819623
    endloop
  endfacet
  facet normal -1 0 0
    outer loop
      vertex -0.0500002 -0.495001 0
      vertex -0.0500002 -0.315688 -0.819623
      vertex -0.0500002 -0.495001 -0.998935
    endloop
  endfacet
  facet normal -1 0 0
    outer loop
      vertex -0.0500002 0 -0.55
      vertex -0.0500002 -0.495001 0
      vertex -0.0500002 0.495 0
    endloop
  endfacet
  facet normal -0 0 1
    outer loop
      vertex -0.0500002 0.495 0
      vertex 0.0499992 -0.495001 0
      vertex 0.0499992 0.495 0
    endloop
  endfacet
  facet normal 0 0 1
    outer loop
      vertex 0.0499992 -0.495001 0
      vertex -0.0500002 0.495 0
      vertex -0.0500002 -0.495001 0
    endloop
  endfacet
  facet normal 1 0 0
    outer loop
      vertex 0.0499992 0.495 0
      vertex 0.0499992 0.315685 -0.819621
      vertex 0.0499992 0.495 -0.998935
    endloop
  endfacet
  facet normal 1 0 0
    outer loop
      vertex 0.0499992 0.495 0
      vertex 0.0499992 0.153883 -0.661802
      vertex 0.0499992 0.315685 -0.819621
    endloop
  endfacet
  facet normal 1 0 0
    outer loop
      vertex 0.0499992 0.495 0
      vertex 0.0499992 0.0981293 -0.610133
      vertex 0.0499992 0.153883 -0.661802
    endloop
  endfacet
  facet normal 1 0 0
    outer loop
      vertex 0.0499992 0.495 0
      vertex 0.0499992 0.0688181 -0.585064
      vertex 0.0499992 0.0981293 -0.610133
    endloop
  endfacet
  facet normal 1 0 0
    outer loop
      vertex 0.0499992 0.495 0
      vertex 0.0499992 0.0499992 -0.57071
      vertex 0.0499992 0.0688181 -0.585064
    endloop
  endfacet
  facet normal 1 0 0
    outer loop
      vertex 0.0499992 0.495 0
      vertex 0.0499992 0.0363266 -0.561803
      vertex 0.0499992 0.0499992 -0.57071
    endloop
  endfacet
  facet normal 1 0 0
    outer loop
      vertex 0.0499992 0.495 0
      vertex 0.0499992 0.0254758 -0.556115
      vertex 0.0499992 0.0363266 -0.561803
    endloop
  endfacet
  facet normal 1 0 0
    outer loop
      vertex 0.0499992 0.495 0
      vertex 0.0499992 0.0162457 -0.552572
      vertex 0.0499992 0.0254758 -0.556115
    endloop
  endfacet
  facet normal 1 0 0
    outer loop
      vertex 0.0499992 0.495 0
      vertex 0.0499992 0.00791903 -0.550623
      vertex 0.0499992 0.0162457 -0.552572
    endloop
  endfacet
  facet normal 1 0 0
    outer loop
      vertex 0.0499992 0.495 0
      vertex 0.0499992 0 -0.549999
      vertex 0.0499992 0.00791903 -0.550623
    endloop
  endfacet
  facet normal 1 -0 0
    outer loop
      vertex 0.0499992 -0.495001 0
      vertex 0.0499992 0 -0.549999
      vertex 0.0499992 0.495 0
    endloop
  endfacet
  facet normal 1 0 0
    outer loop
      vertex 0.0499992 0 -0.549999
      vertex 0.0499992 -0.495001 0
      vertex 0.0499992 -0.00791913 -0.550623
    endloop
  endfacet
  facet normal 1 0 0
    outer loop
      vertex 0.0499992 -0.00791913 -0.550623
      vertex 0.0499992 -0.495001 0
      vertex 0.0499992 -0.0162458 -0.552572
    endloop
  endfacet
  facet normal 1 0 0
    outer loop
      vertex 0.0499992 -0.0162458 -0.552572
      vertex 0.0499992 -0.495001 0
      vertex 0.0499992 -0.0254759 -0.556115
    endloop
  endfacet
  facet normal 1 0 0
    outer loop
      vertex 0.0499992 -0.0254759 -0.556115
      vertex 0.0499992 -0.495001 0
      vertex 0.0499992 -0.0363267 -0.561803
    endloop
  endfacet
  facet normal 1 0 0
    outer loop
      vertex 0.0499992 -0.0363267 -0.561803
      vertex 0.0499992 -0.495001 0
      vertex 0.0499992 -0.0499994 -0.57071
    endloop
  endfacet
  facet normal 1 0 0
    outer loop
      vertex 0.0499992 -0.0499994 -0.57071
      vertex 0.0499992 -0.495001 0
      vertex 0.0499992 -0.0688182 -0.585064
    endloop
  endfacet
  facet normal 1 0 0
    outer loop
      vertex 0.0499992 -0.0688182 -0.585064
      vertex 0.0499992 -0.495001 0
      vertex 0.0499992 -0.0981295 -0.610133
    endloop
  endfacet
  facet normal 1 0 0
    outer loop
      vertex 0.0499992 -0.0981295 -0.610133
      vertex 0.0499992 -0.495001 0
      vertex 0.0499992 -0.153883 -0.661802
    endloop
  endfacet
  facet normal 1 0 0
    outer loop
      vertex 0.0499992 -0.153883 -0.661802
      vertex 0.0499992 -0.495001 0
      vertex 0.0499992 -0.315686 -0.819621
    endloop
  endfacet
  facet normal 1 0 0
    outer loop
      vertex 0.0499992 -0.315686 -0.819621
      vertex 0.0499992 -0.495001 0
      vertex 0.0499992 -0.495001 -0.998935
    endloop
  endfacet
  facet normal 0 1 0
    outer loop
      vertex 0.0499992 0.495 0
      vertex 0 0.495 -0.995
      vertex -0.0500002 0.495 0
    endloop
  endfacet
  facet normal -0 1 0
    outer loop
      vertex 0 0.495 -0.995
      vertex 0.0499992 0.495 0
      vertex 0.0499992 0.495 -0.998935
    endloop
  endfacet
  facet normal 0 1 0
    outer loop
      vertex -0.0500002 0.495 0
      vertex 0 0.495 -0.995
      vertex -0.0500002 0.495 -0.998935
    endloop
  endfacet
  facet normal 0 0 -1
    outer loop
      vertex 0.493844 -0.0782175 -1
      vertex 0.493844 0.0782166 -1
      vertex 0.5 0 -1
    endloop
  endfacet
  facet normal 0 0 -1
    outer loop
      vertex 0.475528 -0.154509 -1
      vertex 0.493844 0.0782166 -1
      vertex 0.493844 -0.0782175 -1
    endloop
  endfacet
  facet normal 0 0 -1
    outer loop
      vertex 0.475528 -0.154509 -1
      vertex 0.475528 0.154508 -1
      vertex 0.493844 0.0782166 -1
    endloop
  endfacet
  facet normal 0 0 -1
    outer loop
      vertex 0.445503 -0.226995 -1
      vertex 0.475528 0.154508 -1
      vertex 0.475528 -0.154509 -1
    endloop
  endfacet
  facet normal 0 0 -1
    outer loop
      vertex 0.445503 -0.226995 -1
      vertex 0.445503 0.226995 -1
      vertex 0.475528 0.154508 -1
    endloop
  endfacet
  facet normal 0 0 -1
    outer loop
      vertex 0.404508 -0.293893 -1
      vertex 0.445503 0.226995 -1
      vertex 0.445503 -0.226995 -1
    endloop
  endfacet
  facet normal 0 0 -1
    outer loop
      vertex 0.404508 -0.293893 -1
      vertex 0.404508 0.293892 -1
      vertex 0.445503 0.226995 -1
    endloop
  endfacet
  facet normal 0 0 -1
    outer loop
      vertex 0.353553 -0.353554 -1
      vertex 0.404508 0.293892 -1
      vertex 0.404508 -0.293893 -1
    endloop
  endfacet
  facet normal 0 0 -1
    outer loop
      vertex 0.353553 -0.353554 -1
      vertex 0.353553 0.353553 -1
      vertex 0.404508 0.293892 -1
    endloop
  endfacet
  facet normal 0 0 -1
    outer loop
      vertex 0.293892 -0.404509 -1
      vertex 0.353553 0.353553 -1
      vertex 0.353553 -0.353554 -1
    endloop
  endfacet
  facet normal 0 0 -1
    outer loop
      vertex 0.293892 -0.404509 -1
      vertex 0.293892 0.404508 -1
      vertex 0.353553 0.353553 -1
    endloop
  endfacet
  facet normal 0 0 -1
    outer loop
      vertex 0.226995 -0.445504 -1
      vertex 0.293892 0.404508 -1
      vertex 0.293892 -0.404509 -1
    endloop
  endfacet
  facet normal 0 0 -1
    outer loop
      vertex 0.226995 -0.445504 -1
      vertex 0.226995 0.445503 -1
      vertex 0.293892 0.404508 -1
    endloop
  endfacet
  facet normal 0 0 -1
    outer loop
      vertex 0.154508 -0.475529 -1
      vertex 0.226995 0.445503 -1
      vertex 0.226995 -0.445504 -1
    endloop
  endfacet
  facet normal 0 0 -1
    outer loop
      vertex 0.154508 -0.475529 -1
      vertex 0.154508 0.475528 -1
      vertex 0.226995 0.445503 -1
    endloop
  endfacet
  facet normal 0 0 -1
    outer loop
      vertex 0.0782166 -0.493845 -1
      vertex 0.154508 0.475528 -1
      vertex 0.154508 -0.475529 -1
    endloop
  endfacet
  facet normal 0 0 -1
    outer loop
      vertex 0.0782166 -0.493845 -1
      vertex 0.0782166 0.493844 -1
      vertex 0.154508 0.475528 -1
    endloop
  endfacet
  facet normal 0 0 -1
    outer loop
      vertex 0 -0.5 -1
      vertex 0.0782166 0.493844 -1
      vertex 0.0782166 -0.493845 -1
    endloop
  endfacet
  facet normal 0 0 -1
    outer loop
      vertex 0 -0.5 -1
      vertex 0 0.5 -1
      vertex 0.0782166 0.493844 -1
    endloop
  endfacet
  facet normal 0 0 -1
    outer loop
      vertex -0.0782175 -0.493845 -1
      vertex 0 0.5 -1
      vertex 0 -0.5 -1
    endloop
  endfacet
  facet normal 0 0 -1
    outer loop
      vertex -0.0782175 -0.493845 -1
      vertex -0.0782175 0.493844 -1
      vertex 0 0.5 -1
    endloop
  endfacet
  facet normal 0 0 -1
    outer loop
      vertex -0.154509 -0.475529 -1
      vertex -0.0782175 0.493844 -1
      vertex -0.0782175 -0.493845 -1
    endloop
  endfacet
  facet normal 0 0 -1
    outer loop
      vertex -0.154509 -0.475529 -1
      vertex -0.154509 0.475528 -1
      vertex -0.0782175 0.493844 -1
    endloop
  endfacet
  facet normal 0 0 -1
    outer loop
      vertex -0.226995 -0.445504 -1
      vertex -0.154509 0.475528 -1
      vertex -0.154509 -0.475529 -1
    endloop
  endfacet
  facet normal 0 0 -1
    outer loop
      vertex -0.226995 -0.445504 -1
      vertex -0.226995 0.445503 -1
      vertex -0.154509 0.475528 -1
    endloop
  endfacet
  facet normal 0 0 -1
    outer loop
      vertex -0.293893 -0.404509 -1
      vertex -0.226995 0.445503 -1
      vertex -0.226995 -0.445504 -1
    endloop
  endfacet
  facet normal 0 0 -1
    outer loop
      vertex -0.293893 -0.404509 -1
      vertex -0.293893 0.404508 -1
      vertex -0.226995 0.445503 -1
    endloop
  endfacet
  facet normal 0 0 -1
    outer loop
      vertex -0.353554 -0.353554 -1
      vertex -0.293893 0.404508 -1
      vertex -0.293893 -0.404509 -1
    endloop
  endfacet
  facet normal 0 0 -1
    outer loop
      vertex -0.353554 -0.353554 -1
      vertex -0.353554 0.353553 -1
      vertex -0.293893 0.404508 -1
    endloop
  endfacet
  facet normal 0 0 -1
    outer loop
      vertex -0.404509 -0.293893 -1
      vertex -0.353554 0.353553 -1
      vertex -0.353554 -0.353554 -1
    endloop
  endfacet
  facet normal 0 0 -1
    outer loop
      vertex -0.404509 -0.293893 -1
      vertex -0.404509 0.293892 -1
      vertex -0.353554 0.353553 -1
    endloop
  endfacet
  facet normal 0 0 -1
    outer loop
      vertex -0.445504 -0.226995 -1
      vertex -0.404509 0.293892 -1
      vertex -0.404509 -0.293893 -1
    endloop
  endfacet
  facet normal 0 0 -1
    outer loop
      vertex -0.445504 -0.226995 -1
      vertex -0.445504 0.226995 -1
      vertex -0.404509 0.293892 -1
    endloop
  endfacet
  facet normal 0 0 -1
    outer loop
      vertex -0.475529 -0.154509 -1
      vertex -0.445504 0.226995 -1
      vertex -0.445504 -0.226995 -1
    endloop
  endfacet
  facet normal 0 0 -1
    outer loop
      vertex -0.475529 -0.154509 -1
      vertex -0.475529 0.154508 -1
      vertex -0.445504 0.226995 -1
    endloop
  endfacet
  facet normal 0 0 -1
    outer loop
      vertex -0.493845 -0.0782175 -1
      vertex -0.475529 0.154508 -1
      vertex -0.475529 -0.154509 -1
    endloop
  endfacet
  facet normal 0 0 -1
    outer loop
      vertex -0.493845 -0.0782175 -1
      vertex -0.493845 0.0782166 -1
      vertex -0.475529 0.154508 -1
    endloop
  endfacet
  facet normal 0 -0 -1
    outer loop
      vertex -0.493845 0.0782166 -1
      vertex -0.493845 -0.0782175 -1
      vertex -0.5 0 -1
    endloop
  endfacet
  facet normal 0 -1 0
    outer loop
      vertex -0.0500002 -0.495001 0
      vertex 0 -0.495001 -0.995001
      vertex 0.0499992 -0.495001 0
    endloop
  endfacet
  facet normal -0 -1 0
    outer loop
      vertex 0 -0.495001 -0.995001
      vertex -0.0500002 -0.495001 0
      vertex -0.0500002 -0.495001 -0.998935
    endloop
  endfacet
  facet normal 0 -1 -0
    outer loop
      vertex 0.0499992 -0.495001 0
      vertex 0 -0.495001 -0.995001
      vertex 0.0499992 -0.495001 -0.998935
    endloop
  endfacet
  facet normal 0.706012 0.055632 0.706012
    outer loop
      vertex 0.5 0 -1
      vertex 0.0499992 0.00791903 -0.550623
      vertex 0.0499992 0 -0.549999
    endloop
  endfacet
  facet normal 0.706014 0.0555665 0.706015
    outer loop
      vertex 0.0499992 0.00791903 -0.550623
      vertex 0.5 0 -1
      vertex 0.493844 0.0782166 -1
    endloop
  endfacet
  facet normal -0.654294 -0.271 0.706015
    outer loop
      vertex -0.475529 -0.154509 -1
      vertex -0.0500002 -0.0254763 -0.556116
      vertex -0.0500002 -0.016246 -0.552573
    endloop
  endfacet
  facet normal -0.654288 -0.271018 0.706015
    outer loop
      vertex -0.0500002 -0.0254763 -0.556116
      vertex -0.475529 -0.154509 -1
      vertex -0.445504 -0.226995 -1
    endloop
  endfacet
  facet normal -0.165326 0.68863 0.706014
    outer loop
      vertex -0.154509 0.475528 -1
      vertex -0.0500002 0.315688 -0.819623
      vertex -0.0782175 0.493844 -1
    endloop
  endfacet
  facet normal -0.165326 0.68863 0.706014
    outer loop
      vertex -0.0500002 0.315688 -0.819623
      vertex -0.154509 0.475528 -1
      vertex -0.0500002 0.153885 -0.661804
    endloop
  endfacet
  facet normal 0.271009 -0.654292 0.706014
    outer loop
      vertex 0.0499992 -0.153883 -0.661802
      vertex 0.226995 -0.445504 -1
      vertex 0.0499992 -0.0981295 -0.610133
    endloop
  endfacet
  facet normal 0.271014 -0.654289 0.706015
    outer loop
      vertex 0.226995 -0.445504 -1
      vertex 0.0499992 -0.153883 -0.661802
      vertex 0.154508 -0.475529 -1
    endloop
  endfacet
  facet normal -0.603835 0.370035 0.706015
    outer loop
      vertex -0.445504 0.226995 -1
      vertex -0.0500002 0.0363272 -0.561804
      vertex -0.404509 0.293892 -1
    endloop
  endfacet
  facet normal -0.603808 0.370085 0.706012
    outer loop
      vertex -0.0500002 0.0363272 -0.561804
      vertex -0.445504 0.226995 -1
      vertex -0.0500002 0.0254762 -0.556116
    endloop
  endfacet
  facet normal 0.370035 0.603836 0.706014
    outer loop
      vertex 0.0499992 0.0981293 -0.610133
      vertex 0.293892 0.404508 -1
      vertex 0.226995 0.445503 -1
    endloop
  endfacet
  facet normal 0.37004 0.603833 0.706014
    outer loop
      vertex 0.293892 0.404508 -1
      vertex 0.0499992 0.0981293 -0.610133
      vertex 0.0499992 0.0688181 -0.585064
    endloop
  endfacet
  facet normal -0.16532 -0.688631 0.706015
    outer loop
      vertex -0.154509 -0.475529 -1
      vertex -0.0500002 -0.315688 -0.819623
      vertex -0.0500002 -0.153885 -0.661804
    endloop
  endfacet
  facet normal -0.165325 -0.688628 0.706016
    outer loop
      vertex -0.0500002 -0.315688 -0.819623
      vertex -0.154509 -0.475529 -1
      vertex -0.0782175 -0.493845 -1
    endloop
  endfacet
  facet normal 0.603805 -0.370092 0.706011
    outer loop
      vertex 0.0499992 -0.0363267 -0.561803
      vertex 0.445503 -0.226995 -1
      vertex 0.0499992 -0.0254759 -0.556115
    endloop
  endfacet
  facet normal 0.603838 -0.370031 0.706015
    outer loop
      vertex 0.445503 -0.226995 -1
      vertex 0.0499992 -0.0363267 -0.561803
      vertex 0.404508 -0.293893 -1
    endloop
  endfacet
  facet normal -0.459936 0.538519 0.706014
    outer loop
      vertex -0.353554 0.353553 -1
      vertex -0.0500002 0.0688192 -0.585065
      vertex -0.293893 0.404508 -1
    endloop
  endfacet
  facet normal -0.459953 0.538503 0.706015
    outer loop
      vertex -0.0500002 0.0688192 -0.585065
      vertex -0.353554 0.353553 -1
      vertex -0.0500002 0.0500001 -0.570711
    endloop
  endfacet
  facet normal -0.706015 0.0555575 0.706014
    outer loop
      vertex -0.5 0 -1
      vertex -0.0500002 0.00791917 -0.550623
      vertex -0.493845 0.0782166 -1
    endloop
  endfacet
  facet normal -0.706015 0.0555421 0.706015
    outer loop
      vertex -0.0500002 0.00791917 -0.550623
      vertex -0.5 0 -1
      vertex -0.0500002 0 -0.55
    endloop
  endfacet
  facet normal 0.0555706 0.706012 0.706016
    outer loop
      vertex 0.0499992 0.315685 -0.819621
      vertex 0.0782166 0.493844 -1
      vertex 0.0499992 0.495 -0.998935
    endloop
  endfacet
  facet normal 0.0555642 0.706014 0.706014
    outer loop
      vertex 0.0499992 0.495 -0.998935
      vertex 0 0.5 -1
      vertex 0 0.495 -0.995
    endloop
  endfacet
  facet normal 0.0555708 0.706068 0.70596
    outer loop
      vertex 0 0.5 -1
      vertex 0.0499992 0.495 -0.998935
      vertex 0.0782166 0.493844 -1
    endloop
  endfacet
  facet normal 0.538519 0.459936 0.706014
    outer loop
      vertex 0.0499992 0.0499992 -0.57071
      vertex 0.404508 0.293892 -1
      vertex 0.353553 0.353553 -1
    endloop
  endfacet
  facet normal 0.538522 0.459932 0.706014
    outer loop
      vertex 0.404508 0.293892 -1
      vertex 0.0499992 0.0499992 -0.57071
      vertex 0.0499992 0.0363266 -0.561803
    endloop
  endfacet
  facet normal -0.271018 0.654289 0.706014
    outer loop
      vertex -0.226995 0.445503 -1
      vertex -0.0500002 0.153885 -0.661804
      vertex -0.154509 0.475528 -1
    endloop
  endfacet
  facet normal -0.271027 0.654284 0.706015
    outer loop
      vertex -0.0500002 0.153885 -0.661804
      vertex -0.226995 0.445503 -1
      vertex -0.0500002 0.0981308 -0.610135
    endloop
  endfacet
  facet normal -0.538519 0.459936 0.706015
    outer loop
      vertex -0.404509 0.293892 -1
      vertex -0.0500002 0.0500001 -0.570711
      vertex -0.353554 0.353553 -1
    endloop
  endfacet
  facet normal -0.538529 0.459923 0.706015
    outer loop
      vertex -0.0500002 0.0500001 -0.570711
      vertex -0.404509 0.293892 -1
      vertex -0.0500002 0.0363272 -0.561804
    endloop
  endfacet
  facet normal -0.706015 -0.0555414 0.706015
    outer loop
      vertex -0.5 0 -1
      vertex -0.0500002 -0.00791927 -0.550623
      vertex -0.0500002 0 -0.55
    endloop
  endfacet
  facet normal -0.706015 -0.0555569 0.706014
    outer loop
      vertex -0.0500002 -0.00791927 -0.550623
      vertex -0.5 0 -1
      vertex -0.493845 -0.0782175 -1
    endloop
  endfacet
  facet normal -0.0555631 0.706014 0.706014
    outer loop
      vertex 0 0.495 -0.995
      vertex 0 0.5 -1
      vertex -0.0500002 0.495 -0.998935
    endloop
  endfacet
  facet normal -0.0555708 0.706014 0.706014
    outer loop
      vertex -0.0500002 0.495 -0.998935
      vertex -0.0782175 0.493844 -1
      vertex -0.0500002 0.315688 -0.819623
    endloop
  endfacet
  facet normal -0.055571 0.706079 0.705949
    outer loop
      vertex -0.0782175 0.493844 -1
      vertex -0.0500002 0.495 -0.998935
      vertex 0 0.5 -1
    endloop
  endfacet
  facet normal 0.459936 0.538519 0.706014
    outer loop
      vertex 0.0499992 0.0688181 -0.585064
      vertex 0.353553 0.353553 -1
      vertex 0.293892 0.404508 -1
    endloop
  endfacet
  facet normal 0.459948 0.538508 0.706015
    outer loop
      vertex 0.353553 0.353553 -1
      vertex 0.0499992 0.0688181 -0.585064
      vertex 0.0499992 0.0499992 -0.57071
    endloop
  endfacet
  facet normal 0.65429 0.271015 0.706014
    outer loop
      vertex 0.0499992 0.0254758 -0.556115
      vertex 0.475528 0.154508 -1
      vertex 0.445503 0.226995 -1
    endloop
  endfacet
  facet normal 0.654293 0.271006 0.706014
    outer loop
      vertex 0.475528 0.154508 -1
      vertex 0.0499992 0.0254758 -0.556115
      vertex 0.0499992 0.0162457 -0.552572
    endloop
  endfacet
  facet normal 0.68863 0.165326 0.706014
    outer loop
      vertex 0.0499992 0.0162457 -0.552572
      vertex 0.493844 0.0782166 -1
      vertex 0.475528 0.154508 -1
    endloop
  endfacet
  facet normal 0.688644 0.165255 0.706017
    outer loop
      vertex 0.493844 0.0782166 -1
      vertex 0.0499992 0.0162457 -0.552572
      vertex 0.0499992 0.00791903 -0.550623
    endloop
  endfacet
  facet normal -0.688627 -0.165338 0.706014
    outer loop
      vertex -0.493845 -0.0782175 -1
      vertex -0.0500002 -0.016246 -0.552573
      vertex -0.0500002 -0.00791927 -0.550623
    endloop
  endfacet
  facet normal -0.688629 -0.165326 0.706015
    outer loop
      vertex -0.0500002 -0.016246 -0.552573
      vertex -0.493845 -0.0782175 -1
      vertex -0.475529 -0.154509 -1
    endloop
  endfacet
  facet normal -0.459952 -0.538504 0.706016
    outer loop
      vertex -0.353554 -0.353554 -1
      vertex -0.0500002 -0.0688193 -0.585065
      vertex -0.0500002 -0.0500002 -0.570711
    endloop
  endfacet
  facet normal -0.459936 -0.538519 0.706015
    outer loop
      vertex -0.0500002 -0.0688193 -0.585065
      vertex -0.353554 -0.353554 -1
      vertex -0.293893 -0.404509 -1
    endloop
  endfacet
  facet normal -0.370018 -0.603847 0.706014
    outer loop
      vertex -0.293893 -0.404509 -1
      vertex -0.0500002 -0.098131 -0.610135
      vertex -0.0500002 -0.0688193 -0.585065
    endloop
  endfacet
  facet normal -0.370031 -0.603838 0.706015
    outer loop
      vertex -0.0500002 -0.098131 -0.610135
      vertex -0.293893 -0.404509 -1
      vertex -0.226995 -0.445504 -1
    endloop
  endfacet
  facet normal 0.0555501 -0.706015 0.706015
    outer loop
      vertex 0 -0.495001 -0.995001
      vertex 0 -0.5 -1
      vertex 0.0499992 -0.495001 -0.998935
    endloop
  endfacet
  facet normal 0.0555706 -0.706012 0.706016
    outer loop
      vertex 0.0499992 -0.495001 -0.998935
      vertex 0.0782166 -0.493845 -1
      vertex 0.0499992 -0.315686 -0.819621
    endloop
  endfacet
  facet normal 0.0555711 -0.706188 0.70584
    outer loop
      vertex 0.0782166 -0.493845 -1
      vertex 0.0499992 -0.495001 -0.998935
      vertex 0 -0.5 -1
    endloop
  endfacet
  facet normal -0.0555708 -0.706012 0.706016
    outer loop
      vertex -0.0500002 -0.315688 -0.819623
      vertex -0.0782175 -0.493845 -1
      vertex -0.0500002 -0.495001 -0.998935
    endloop
  endfacet
  facet normal -0.055549 -0.706015 0.706015
    outer loop
      vertex -0.0500002 -0.495001 -0.998935
      vertex 0 -0.5 -1
      vertex 0 -0.495001 -0.995001
    endloop
  endfacet
  facet normal -0.0555714 -0.706199 0.705829
    outer loop
      vertex 0 -0.5 -1
      vertex -0.0500002 -0.495001 -0.998935
      vertex -0.0782175 -0.493845 -1
    endloop
  endfacet
  facet normal 0.16532 -0.688631 0.706015
    outer loop
      vertex 0.0499992 -0.315686 -0.819621
      vertex 0.154508 -0.475529 -1
      vertex 0.0499992 -0.153883 -0.661802
    endloop
  endfacet
  facet normal 0.165326 -0.688628 0.706016
    outer loop
      vertex 0.154508 -0.475529 -1
      vertex 0.0499992 -0.315686 -0.819621
      vertex 0.0782166 -0.493845 -1
    endloop
  endfacet
  facet normal 0.459943 -0.538512 0.706015
    outer loop
      vertex 0.0499992 -0.0688182 -0.585064
      vertex 0.353553 -0.353554 -1
      vertex 0.0499992 -0.0499994 -0.57071
    endloop
  endfacet
  facet normal 0.459936 -0.538519 0.706015
    outer loop
      vertex 0.353553 -0.353554 -1
      vertex 0.0499992 -0.0688182 -0.585064
      vertex 0.293892 -0.404509 -1
    endloop
  endfacet
  facet normal 0.370041 -0.603832 0.706015
    outer loop
      vertex 0.0499992 -0.0981295 -0.610133
      vertex 0.293892 -0.404509 -1
      vertex 0.0499992 -0.0688182 -0.585064
    endloop
  endfacet
  facet normal 0.370035 -0.603836 0.706015
    outer loop
      vertex 0.293892 -0.404509 -1
      vertex 0.0499992 -0.0981295 -0.610133
      vertex 0.226995 -0.445504 -1
    endloop
  endfacet
  facet normal 0.538524 -0.459929 0.706015
    outer loop
      vertex 0.0499992 -0.0499994 -0.57071
      vertex 0.404508 -0.293893 -1
      vertex 0.0499992 -0.0363267 -0.561803
    endloop
  endfacet
  facet normal 0.538519 -0.459936 0.706015
    outer loop
      vertex 0.404508 -0.293893 -1
      vertex 0.0499992 -0.0499994 -0.57071
      vertex 0.353553 -0.353554 -1
    endloop
  endfacet
  facet normal 0.706012 -0.0556313 0.706012
    outer loop
      vertex 0.0499992 -0.00791913 -0.550623
      vertex 0.5 0 -1
      vertex 0.0499992 0 -0.549999
    endloop
  endfacet
  facet normal 0.706014 -0.0555658 0.706015
    outer loop
      vertex 0.5 0 -1
      vertex 0.0499992 -0.00791913 -0.550623
      vertex 0.493844 -0.0782175 -1
    endloop
  endfacet
  facet normal -0.370031 0.603838 0.706014
    outer loop
      vertex -0.293893 0.404508 -1
      vertex -0.0500002 0.0981308 -0.610135
      vertex -0.226995 0.445503 -1
    endloop
  endfacet
  facet normal -0.370017 0.603848 0.706013
    outer loop
      vertex -0.0500002 0.0981308 -0.610135
      vertex -0.293893 0.404508 -1
      vertex -0.0500002 0.0688192 -0.585065
    endloop
  endfacet
  facet normal -0.68863 0.165326 0.706015
    outer loop
      vertex -0.493845 0.0782166 -1
      vertex -0.0500002 0.0162459 -0.552573
      vertex -0.475529 0.154508 -1
    endloop
  endfacet
  facet normal -0.688627 0.165338 0.706014
    outer loop
      vertex -0.0500002 0.0162459 -0.552573
      vertex -0.493845 0.0782166 -1
      vertex -0.0500002 0.00791917 -0.550623
    endloop
  endfacet
  facet normal -0.654289 0.271015 0.706014
    outer loop
      vertex -0.475529 0.154508 -1
      vertex -0.0500002 0.0254762 -0.556116
      vertex -0.445504 0.226995 -1
    endloop
  endfacet
  facet normal -0.654295 0.271 0.706015
    outer loop
      vertex -0.0500002 0.0254762 -0.556116
      vertex -0.475529 0.154508 -1
      vertex -0.0500002 0.0162459 -0.552573
    endloop
  endfacet
  facet normal 0.165326 0.688628 0.706016
    outer loop
      vertex 0.0499992 0.315685 -0.819621
      vertex 0.154508 0.475528 -1
      vertex 0.0782166 0.493844 -1
    endloop
  endfacet
  facet normal 0.165313 0.688634 0.706013
    outer loop
      vertex 0.154508 0.475528 -1
      vertex 0.0499992 0.315685 -0.819621
      vertex 0.0499992 0.153883 -0.661802
    endloop
  endfacet
  facet normal 0.271015 0.65429 0.706014
    outer loop
      vertex 0.0499992 0.153883 -0.661802
      vertex 0.226995 0.445503 -1
      vertex 0.154508 0.475528 -1
    endloop
  endfacet
  facet normal 0.271016 0.654289 0.706014
    outer loop
      vertex 0.226995 0.445503 -1
      vertex 0.0499992 0.153883 -0.661802
      vertex 0.0499992 0.0981293 -0.610133
    endloop
  endfacet
  facet normal 0.603836 0.370035 0.706014
    outer loop
      vertex 0.0499992 0.0363266 -0.561803
      vertex 0.445503 0.226995 -1
      vertex 0.404508 0.293892 -1
    endloop
  endfacet
  facet normal 0.603805 0.370092 0.706011
    outer loop
      vertex 0.445503 0.226995 -1
      vertex 0.0499992 0.0363266 -0.561803
      vertex 0.0499992 0.0254758 -0.556115
    endloop
  endfacet
  facet normal -0.538528 -0.459923 0.706016
    outer loop
      vertex -0.404509 -0.293893 -1
      vertex -0.0500002 -0.0500002 -0.570711
      vertex -0.0500002 -0.0363273 -0.561804
    endloop
  endfacet
  facet normal -0.538518 -0.459935 0.706015
    outer loop
      vertex -0.0500002 -0.0500002 -0.570711
      vertex -0.404509 -0.293893 -1
      vertex -0.353554 -0.353554 -1
    endloop
  endfacet
  facet normal -0.603808 -0.370085 0.706012
    outer loop
      vertex -0.445504 -0.226995 -1
      vertex -0.0500002 -0.0363273 -0.561804
      vertex -0.0500002 -0.0254763 -0.556116
    endloop
  endfacet
  facet normal -0.603838 -0.370031 0.706015
    outer loop
      vertex -0.0500002 -0.0363273 -0.561804
      vertex -0.445504 -0.226995 -1
      vertex -0.404509 -0.293893 -1
    endloop
  endfacet
  facet normal -0.27102 -0.654287 0.706015
    outer loop
      vertex -0.226995 -0.445504 -1
      vertex -0.0500002 -0.153885 -0.661804
      vertex -0.0500002 -0.098131 -0.610135
    endloop
  endfacet
  facet normal -0.271018 -0.654288 0.706015
    outer loop
      vertex -0.0500002 -0.153885 -0.661804
      vertex -0.226995 -0.445504 -1
      vertex -0.154509 -0.475529 -1
    endloop
  endfacet
  facet normal 0.688644 -0.165256 0.706018
    outer loop
      vertex 0.0499992 -0.0162458 -0.552572
      vertex 0.493844 -0.0782175 -1
      vertex 0.0499992 -0.00791913 -0.550623
    endloop
  endfacet
  facet normal 0.68863 -0.165326 0.706014
    outer loop
      vertex 0.493844 -0.0782175 -1
      vertex 0.0499992 -0.0162458 -0.552572
      vertex 0.475528 -0.154509 -1
    endloop
  endfacet
  facet normal 0.654293 -0.271006 0.706015
    outer loop
      vertex 0.0499992 -0.0254759 -0.556115
      vertex 0.475528 -0.154509 -1
      vertex 0.0499992 -0.0162458 -0.552572
    endloop
  endfacet
  facet normal 0.654289 -0.271018 0.706014
    outer loop
      vertex 0.475528 -0.154509 -1
      vertex 0.0499992 -0.0254759 -0.556115
      vertex 0.445503 -0.226995 -1
    endloop
  endfacet
endsolid OpenSCAD_Model
