solid OpenSCAD_Model
  facet normal 0.998629 0.052354 0
    outer loop
      vertex 0.5 0 -0.5
      vertex 0.49726 0.0522642 -1
      vertex 0.49726 0.0522642 -0.5
    endloop
  endfacet
  facet normal 0.998629 0.052354 0
    outer loop
      vertex 0.49726 0.0522642 -1
      vertex 0.5 0 -0.5
      vertex 0.5 0 -1
    endloop
  endfacet
  facet normal -0.99863 -0.052334 0
    outer loop
      vertex -0.497261 -0.0522652 -1
      vertex -0.5 0 -0.5
      vertex -0.5 0 -1
    endloop
  endfacet
  facet normal -0.99863 -0.052334 0
    outer loop
      vertex -0.5 0 -0.5
      vertex -0.497261 -0.0522652 -1
      vertex -0.497261 -0.0522652 -0.5
    endloop
  endfacet
  facet normal -0.052353 0.998629 0
    outer loop
      vertex 0 0.5 -1
      vertex -0.0522652 0.49726 -0.279297
      vertex 0 0.5 -0.277775
    endloop
  endfacet
  facet normal -0.052353 0.998629 0
    outer loop
      vertex -0.0522652 0.49726 -0.279297
      vertex 0 0.5 -1
      vertex -0.0522652 0.49726 -1
    endloop
  endfacet
  facet normal 0.052335 -0.99863 0
    outer loop
      vertex 0 -0.5 -1
      vertex 0.0522642 -0.497261 -0.279297
      vertex 0 -0.5 -0.277775
    endloop
  endfacet
  facet normal 0.052335 -0.99863 0
    outer loop
      vertex 0.0522642 -0.497261 -0.279297
      vertex 0 -0.5 -1
      vertex 0.0522642 -0.497261 -1
    endloop
  endfacet
  facet normal 0.707107 0.707107 0
    outer loop
      vertex 0.371572 0.334565 -0.369682
      vertex 0.334565 0.371572 -1
      vertex 0.334565 0.371572 -0.349123
    endloop
  endfacet
  facet normal 0.707107 0.707107 0
    outer loop
      vertex 0.334565 0.371572 -1
      vertex 0.371572 0.334565 -0.369682
      vertex 0.371572 0.334565 -1
    endloop
  endfacet
  facet normal -0.707116 0.707097 0
    outer loop
      vertex -0.371572 0.334565 -0.369682
      vertex -0.334566 0.371572 -1
      vertex -0.371572 0.334565 -1
    endloop
  endfacet
  facet normal -0.707116 0.707097 0
    outer loop
      vertex -0.334566 0.371572 -1
      vertex -0.371572 0.334565 -0.369682
      vertex -0.334566 0.371572 -0.349123
    endloop
  endfacet
  facet normal -0.358375 0.933578 0
    outer loop
      vertex -0.154509 0.475528 -1
      vertex -0.203369 0.456772 -0.30179
      vertex -0.154509 0.475528 -0.291371
    endloop
  endfacet
  facet normal -0.358375 0.933578 0
    outer loop
      vertex -0.203369 0.456772 -0.30179
      vertex -0.154509 0.475528 -1
      vertex -0.203369 0.456772 -1
    endloop
  endfacet
  facet normal -0.965924 -0.258826 0
    outer loop
      vertex -0.475529 -0.154509 -1
      vertex -0.489075 -0.103956 -0.497797
      vertex -0.489075 -0.103956 -1
    endloop
  endfacet
  facet normal -0.965924 -0.258826 0
    outer loop
      vertex -0.489075 -0.103956 -0.497797
      vertex -0.475529 -0.154509 -1
      vertex -0.475529 -0.154509 -0.469713
    endloop
  endfacet
  facet normal 0.891008 0.453988 0
    outer loop
      vertex 0.456772 0.203368 -0.442569
      vertex 0.433012 0.25 -1
      vertex 0.433012 0.25 -0.416662
    endloop
  endfacet
  facet normal 0.891008 0.453988 0
    outer loop
      vertex 0.433012 0.25 -1
      vertex 0.456772 0.203368 -0.442569
      vertex 0.456772 0.203368 -1
    endloop
  endfacet
  facet normal 0.358375 0.933578 0
    outer loop
      vertex 0.154508 0.475528 -1
      vertex 0.203368 0.456772 -0.30179
      vertex 0.203368 0.456772 -1
    endloop
  endfacet
  facet normal 0.358375 0.933578 0
    outer loop
      vertex 0.203368 0.456772 -0.30179
      vertex 0.154508 0.475528 -1
      vertex 0.154508 0.475528 -0.291371
    endloop
  endfacet
  facet normal -0.891008 0.453988 0
    outer loop
      vertex -0.456773 0.203368 -0.442569
      vertex -0.433013 0.25 -1
      vertex -0.456773 0.203368 -1
    endloop
  endfacet
  facet normal -0.891008 0.453988 0
    outer loop
      vertex -0.433013 0.25 -1
      vertex -0.456773 0.203368 -0.442569
      vertex -0.433013 0.25 -0.416662
    endloop
  endfacet
  facet normal -0.838669 0.544642 0
    outer loop
      vertex -0.433013 0.25 -0.416662
      vertex -0.404509 0.293892 -1
      vertex -0.433013 0.25 -1
    endloop
  endfacet
  facet normal -0.838669 0.544642 0
    outer loop
      vertex -0.404509 0.293892 -1
      vertex -0.433013 0.25 -0.416662
      vertex -0.404509 0.293892 -0.392278
    endloop
  endfacet
  facet normal -0.156415 0.987691 0
    outer loop
      vertex -0.0522652 0.49726 -1
      vertex -0.103956 0.489074 -0.283845
      vertex -0.0522652 0.49726 -0.279297
    endloop
  endfacet
  facet normal -0.156415 0.987691 0
    outer loop
      vertex -0.103956 0.489074 -0.283845
      vertex -0.0522652 0.49726 -1
      vertex -0.103956 0.489074 -1
    endloop
  endfacet
  facet normal 0.891004 -0.453995 0
    outer loop
      vertex 0.433012 -0.25 -1
      vertex 0.456772 -0.203369 -0.442568
      vertex 0.433012 -0.25 -0.416662
    endloop
  endfacet
  facet normal 0.891004 -0.453995 0
    outer loop
      vertex 0.456772 -0.203369 -0.442568
      vertex 0.433012 -0.25 -1
      vertex 0.456772 -0.203369 -1
    endloop
  endfacet
  facet normal 0.358375 -0.933578 0
    outer loop
      vertex 0.154508 -0.475529 -1
      vertex 0.203368 -0.456773 -0.30179
      vertex 0.154508 -0.475529 -0.29137
    endloop
  endfacet
  facet normal 0.358375 -0.933578 0
    outer loop
      vertex 0.203368 -0.456773 -0.30179
      vertex 0.154508 -0.475529 -1
      vertex 0.203368 -0.456773 -1
    endloop
  endfacet
  facet normal 0.965924 -0.258826 0
    outer loop
      vertex 0.475528 -0.154509 -1
      vertex 0.489074 -0.103956 -0.497797
      vertex 0.475528 -0.154509 -0.469713
    endloop
  endfacet
  facet normal 0.965924 -0.258826 0
    outer loop
      vertex 0.489074 -0.103956 -0.497797
      vertex 0.475528 -0.154509 -1
      vertex 0.489074 -0.103956 -1
    endloop
  endfacet
  facet normal -0.258826 -0.965924 0
    outer loop
      vertex -0.103956 -0.489075 -1
      vertex -0.154509 -0.475529 -0.29137
      vertex -0.154509 -0.475529 -1
    endloop
  endfacet
  facet normal -0.258826 -0.965924 0
    outer loop
      vertex -0.154509 -0.475529 -0.29137
      vertex -0.103956 -0.489075 -1
      vertex -0.103956 -0.489075 -0.283845
    endloop
  endfacet
  facet normal -0.707107 -0.707107 0
    outer loop
      vertex -0.334566 -0.371572 -1
      vertex -0.371572 -0.334566 -0.369682
      vertex -0.371572 -0.334566 -1
    endloop
  endfacet
  facet normal -0.707107 -0.707107 0
    outer loop
      vertex -0.371572 -0.334566 -0.369682
      vertex -0.334566 -0.371572 -1
      vertex -0.334566 -0.371572 -0.349123
    endloop
  endfacet
  facet normal -0.77714 -0.629328 0
    outer loop
      vertex -0.371572 -0.334566 -1
      vertex -0.404509 -0.293893 -0.392278
      vertex -0.404509 -0.293893 -1
    endloop
  endfacet
  facet normal -0.77714 -0.629328 0
    outer loop
      vertex -0.404509 -0.293893 -0.392278
      vertex -0.371572 -0.334566 -1
      vertex -0.371572 -0.334566 -0.369682
    endloop
  endfacet
  facet normal -0.987692 -0.156414 0
    outer loop
      vertex -0.497261 -0.0522652 -1
      vertex -0.489703 -0.0999908 -0.5
      vertex -0.497261 -0.0522652 -0.5
    endloop
  endfacet
  facet normal -0.987691 -0.156415 -1.02998e-07
    outer loop
      vertex -0.489075 -0.103956 -1
      vertex -0.489703 -0.0999908 -0.5
      vertex -0.497261 -0.0522652 -1
    endloop
  endfacet
  facet normal -0.987689 -0.156428 0
    outer loop
      vertex -0.489703 -0.0999908 -0.5
      vertex -0.489075 -0.103956 -1
      vertex -0.489075 -0.103956 -0.497797
    endloop
  endfacet
  facet normal 0.965924 0.258826 0
    outer loop
      vertex 0.489074 0.103955 -0.497798
      vertex 0.475528 0.154508 -1
      vertex 0.475528 0.154508 -0.469713
    endloop
  endfacet
  facet normal 0.965924 0.258826 0
    outer loop
      vertex 0.475528 0.154508 -1
      vertex 0.489074 0.103955 -0.497798
      vertex 0.489074 0.103955 -1
    endloop
  endfacet
  facet normal 0.987683 0.156467 0
    outer loop
      vertex 0.489702 0.0999908 -0.5
      vertex 0.489074 0.103955 -1
      vertex 0.489074 0.103955 -0.497798
    endloop
  endfacet
  facet normal 0.987692 0.156411 -4.50368e-07
    outer loop
      vertex 0.49726 0.0522642 -0.5
      vertex 0.489074 0.103955 -1
      vertex 0.489702 0.0999908 -0.5
    endloop
  endfacet
  facet normal 0.987691 0.156415 0
    outer loop
      vertex 0.489074 0.103955 -1
      vertex 0.49726 0.0522642 -0.5
      vertex 0.49726 0.0522642 -1
    endloop
  endfacet
  facet normal 0.933578 0.358375 0
    outer loop
      vertex 0.475528 0.154508 -0.469713
      vertex 0.456772 0.203368 -1
      vertex 0.456772 0.203368 -0.442569
    endloop
  endfacet
  facet normal 0.933578 0.358375 0
    outer loop
      vertex 0.456772 0.203368 -1
      vertex 0.475528 0.154508 -0.469713
      vertex 0.475528 0.154508 -1
    endloop
  endfacet
  facet normal 0.777149 0.629316 0
    outer loop
      vertex 0.404508 0.293892 -0.392278
      vertex 0.371572 0.334565 -1
      vertex 0.371572 0.334565 -0.369682
    endloop
  endfacet
  facet normal 0.777149 0.629316 0
    outer loop
      vertex 0.371572 0.334565 -1
      vertex 0.404508 0.293892 -0.392278
      vertex 0.404508 0.293892 -1
    endloop
  endfacet
  facet normal 0.838669 0.544642 0
    outer loop
      vertex 0.433012 0.25 -0.416662
      vertex 0.404508 0.293892 -1
      vertex 0.404508 0.293892 -0.392278
    endloop
  endfacet
  facet normal 0.838669 0.544642 0
    outer loop
      vertex 0.404508 0.293892 -1
      vertex 0.433012 0.25 -0.416662
      vertex 0.433012 0.25 -1
    endloop
  endfacet
  facet normal 0.156415 0.987691 0
    outer loop
      vertex 0.0522642 0.49726 -1
      vertex 0.103955 0.489074 -0.283845
      vertex 0.103955 0.489074 -1
    endloop
  endfacet
  facet normal 0.156415 0.987691 0
    outer loop
      vertex 0.103955 0.489074 -0.283845
      vertex 0.0522642 0.49726 -1
      vertex 0.0522642 0.49726 -0.279297
    endloop
  endfacet
  facet normal 0.052354 0.998629 0
    outer loop
      vertex 0 0.5 -1
      vertex 0.0522642 0.49726 -0.279297
      vertex 0.0522642 0.49726 -1
    endloop
  endfacet
  facet normal 0.052354 0.998629 0
    outer loop
      vertex 0.0522642 0.49726 -0.279297
      vertex 0 0.5 -1
      vertex 0 0.5 -0.277775
    endloop
  endfacet
  facet normal 0.544642 0.838669 0
    outer loop
      vertex 0.25 0.433012 -1
      vertex 0.293892 0.404508 -0.330826
      vertex 0.293892 0.404508 -1
    endloop
  endfacet
  facet normal 0.544642 0.838669 0
    outer loop
      vertex 0.293892 0.404508 -0.330826
      vertex 0.25 0.433012 -1
      vertex 0.25 0.433012 -0.31499
    endloop
  endfacet
  facet normal 0.453988 0.891008 0
    outer loop
      vertex 0.203368 0.456772 -1
      vertex 0.25 0.433012 -0.31499
      vertex 0.25 0.433012 -1
    endloop
  endfacet
  facet normal 0.453988 0.891008 0
    outer loop
      vertex 0.25 0.433012 -0.31499
      vertex 0.203368 0.456772 -1
      vertex 0.203368 0.456772 -0.30179
    endloop
  endfacet
  facet normal 0.629316 0.777149 0
    outer loop
      vertex 0.293892 0.404508 -1
      vertex 0.334565 0.371572 -0.349123
      vertex 0.334565 0.371572 -1
    endloop
  endfacet
  facet normal 0.629316 0.777149 0
    outer loop
      vertex 0.334565 0.371572 -0.349123
      vertex 0.293892 0.404508 -1
      vertex 0.293892 0.404508 -0.330826
    endloop
  endfacet
  facet normal -0.987683 0.156467 0
    outer loop
      vertex -0.489075 0.103955 -1
      vertex -0.489703 0.0999908 -0.5
      vertex -0.489075 0.103955 -0.497798
    endloop
  endfacet
  facet normal -0.987691 0.156415 -4.15829e-07
    outer loop
      vertex -0.497261 0.0522642 -1
      vertex -0.489703 0.0999908 -0.5
      vertex -0.489075 0.103955 -1
    endloop
  endfacet
  facet normal -0.987692 0.156411 0
    outer loop
      vertex -0.489703 0.0999908 -0.5
      vertex -0.497261 0.0522642 -1
      vertex -0.497261 0.0522642 -0.5
    endloop
  endfacet
  facet normal 0 0 -1
    outer loop
      vertex 0.49726 -0.0522652 -1
      vertex 0.49726 0.0522642 -1
      vertex 0.5 0 -1
    endloop
  endfacet
  facet normal 0 0 -1
    outer loop
      vertex 0.489074 -0.103956 -1
      vertex 0.49726 0.0522642 -1
      vertex 0.49726 -0.0522652 -1
    endloop
  endfacet
  facet normal 0 0 -1
    outer loop
      vertex 0.489074 -0.103956 -1
      vertex 0.489074 0.103955 -1
      vertex 0.49726 0.0522642 -1
    endloop
  endfacet
  facet normal 0 0 -1
    outer loop
      vertex 0.475528 -0.154509 -1
      vertex 0.489074 0.103955 -1
      vertex 0.489074 -0.103956 -1
    endloop
  endfacet
  facet normal 0 0 -1
    outer loop
      vertex 0.475528 -0.154509 -1
      vertex 0.475528 0.154508 -1
      vertex 0.489074 0.103955 -1
    endloop
  endfacet
  facet normal 0 0 -1
    outer loop
      vertex 0.456772 -0.203369 -1
      vertex 0.475528 0.154508 -1
      vertex 0.475528 -0.154509 -1
    endloop
  endfacet
  facet normal 0 0 -1
    outer loop
      vertex 0.456772 -0.203369 -1
      vertex 0.456772 0.203368 -1
      vertex 0.475528 0.154508 -1
    endloop
  endfacet
  facet normal 0 0 -1
    outer loop
      vertex 0.433012 -0.25 -1
      vertex 0.456772 0.203368 -1
      vertex 0.456772 -0.203369 -1
    endloop
  endfacet
  facet normal 0 0 -1
    outer loop
      vertex 0.433012 -0.25 -1
      vertex 0.433012 0.25 -1
      vertex 0.456772 0.203368 -1
    endloop
  endfacet
  facet normal 0 0 -1
    outer loop
      vertex 0.404508 -0.293893 -1
      vertex 0.433012 0.25 -1
      vertex 0.433012 -0.25 -1
    endloop
  endfacet
  facet normal 0 0 -1
    outer loop
      vertex 0.404508 -0.293893 -1
      vertex 0.404508 0.293892 -1
      vertex 0.433012 0.25 -1
    endloop
  endfacet
  facet normal 0 0 -1
    outer loop
      vertex 0.371572 -0.334566 -1
      vertex 0.404508 0.293892 -1
      vertex 0.404508 -0.293893 -1
    endloop
  endfacet
  facet normal 0 0 -1
    outer loop
      vertex 0.371572 -0.334566 -1
      vertex 0.371572 0.334565 -1
      vertex 0.404508 0.293892 -1
    endloop
  endfacet
  facet normal 0 0 -1
    outer loop
      vertex 0.334565 -0.371572 -1
      vertex 0.371572 0.334565 -1
      vertex 0.371572 -0.334566 -1
    endloop
  endfacet
  facet normal 0 0 -1
    outer loop
      vertex 0.334565 -0.371572 -1
      vertex 0.334565 0.371572 -1
      vertex 0.371572 0.334565 -1
    endloop
  endfacet
  facet normal 0 0 -1
    outer loop
      vertex 0.293892 -0.404509 -1
      vertex 0.334565 0.371572 -1
      vertex 0.334565 -0.371572 -1
    endloop
  endfacet
  facet normal 0 0 -1
    outer loop
      vertex 0.293892 -0.404509 -1
      vertex 0.293892 0.404508 -1
      vertex 0.334565 0.371572 -1
    endloop
  endfacet
  facet normal 0 0 -1
    outer loop
      vertex 0.25 -0.433013 -1
      vertex 0.293892 0.404508 -1
      vertex 0.293892 -0.404509 -1
    endloop
  endfacet
  facet normal 0 0 -1
    outer loop
      vertex 0.25 -0.433013 -1
      vertex 0.25 0.433012 -1
      vertex 0.293892 0.404508 -1
    endloop
  endfacet
  facet normal 0 0 -1
    outer loop
      vertex 0.203368 -0.456773 -1
      vertex 0.25 0.433012 -1
      vertex 0.25 -0.433013 -1
    endloop
  endfacet
  facet normal 0 0 -1
    outer loop
      vertex 0.203368 -0.456773 -1
      vertex 0.203368 0.456772 -1
      vertex 0.25 0.433012 -1
    endloop
  endfacet
  facet normal 0 0 -1
    outer loop
      vertex 0.154508 -0.475529 -1
      vertex 0.203368 0.456772 -1
      vertex 0.203368 -0.456773 -1
    endloop
  endfacet
  facet normal 0 0 -1
    outer loop
      vertex 0.154508 -0.475529 -1
      vertex 0.154508 0.475528 -1
      vertex 0.203368 0.456772 -1
    endloop
  endfacet
  facet normal 0 0 -1
    outer loop
      vertex 0.103955 -0.489075 -1
      vertex 0.154508 0.475528 -1
      vertex 0.154508 -0.475529 -1
    endloop
  endfacet
  facet normal 0 0 -1
    outer loop
      vertex 0.103955 -0.489075 -1
      vertex 0.103955 0.489074 -1
      vertex 0.154508 0.475528 -1
    endloop
  endfacet
  facet normal 0 0 -1
    outer loop
      vertex 0.0522642 -0.497261 -1
      vertex 0.103955 0.489074 -1
      vertex 0.103955 -0.489075 -1
    endloop
  endfacet
  facet normal 0 0 -1
    outer loop
      vertex 0.0522642 -0.497261 -1
      vertex 0.0522642 0.49726 -1
      vertex 0.103955 0.489074 -1
    endloop
  endfacet
  facet normal 0 0 -1
    outer loop
      vertex 0 -0.5 -1
      vertex 0.0522642 0.49726 -1
      vertex 0.0522642 -0.497261 -1
    endloop
  endfacet
  facet normal 0 0 -1
    outer loop
      vertex 0 -0.5 -1
      vertex 0 0.5 -1
      vertex 0.0522642 0.49726 -1
    endloop
  endfacet
  facet normal 0 0 -1
    outer loop
      vertex -0.0522652 -0.497261 -1
      vertex 0 0.5 -1
      vertex 0 -0.5 -1
    endloop
  endfacet
  facet normal 0 0 -1
    outer loop
      vertex -0.0522652 -0.497261 -1
      vertex -0.0522652 0.49726 -1
      vertex 0 0.5 -1
    endloop
  endfacet
  facet normal 0 0 -1
    outer loop
      vertex -0.103956 -0.489075 -1
      vertex -0.0522652 0.49726 -1
      vertex -0.0522652 -0.497261 -1
    endloop
  endfacet
  facet normal 0 0 -1
    outer loop
      vertex -0.103956 -0.489075 -1
      vertex -0.103956 0.489074 -1
      vertex -0.0522652 0.49726 -1
    endloop
  endfacet
  facet normal 0 0 -1
    outer loop
      vertex -0.154509 -0.475529 -1
      vertex -0.103956 0.489074 -1
      vertex -0.103956 -0.489075 -1
    endloop
  endfacet
  facet normal 0 0 -1
    outer loop
      vertex -0.154509 -0.475529 -1
      vertex -0.154509 0.475528 -1
      vertex -0.103956 0.489074 -1
    endloop
  endfacet
  facet normal 0 0 -1
    outer loop
      vertex -0.203369 -0.456773 -1
      vertex -0.154509 0.475528 -1
      vertex -0.154509 -0.475529 -1
    endloop
  endfacet
  facet normal 0 0 -1
    outer loop
      vertex -0.203369 -0.456773 -1
      vertex -0.203369 0.456772 -1
      vertex -0.154509 0.475528 -1
    endloop
  endfacet
  facet normal 0 0 -1
    outer loop
      vertex -0.25 -0.433013 -1
      vertex -0.203369 0.456772 -1
      vertex -0.203369 -0.456773 -1
    endloop
  endfacet
  facet normal 0 0 -1
    outer loop
      vertex -0.25 -0.433013 -1
      vertex -0.25 0.433012 -1
      vertex -0.203369 0.456772 -1
    endloop
  endfacet
  facet normal 0 0 -1
    outer loop
      vertex -0.293893 -0.404509 -1
      vertex -0.25 0.433012 -1
      vertex -0.25 -0.433013 -1
    endloop
  endfacet
  facet normal 0 0 -1
    outer loop
      vertex -0.293893 -0.404509 -1
      vertex -0.293893 0.404508 -1
      vertex -0.25 0.433012 -1
    endloop
  endfacet
  facet normal 0 0 -1
    outer loop
      vertex -0.334566 -0.371572 -1
      vertex -0.293893 0.404508 -1
      vertex -0.293893 -0.404509 -1
    endloop
  endfacet
  facet normal 0 0 -1
    outer loop
      vertex -0.334566 -0.371572 -1
      vertex -0.334566 0.371572 -1
      vertex -0.293893 0.404508 -1
    endloop
  endfacet
  facet normal 0 0 -1
    outer loop
      vertex -0.371572 -0.334566 -1
      vertex -0.334566 0.371572 -1
      vertex -0.334566 -0.371572 -1
    endloop
  endfacet
  facet normal 0 0 -1
    outer loop
      vertex -0.371572 -0.334566 -1
      vertex -0.371572 0.334565 -1
      vertex -0.334566 0.371572 -1
    endloop
  endfacet
  facet normal 0 0 -1
    outer loop
      vertex -0.404509 -0.293893 -1
      vertex -0.371572 0.334565 -1
      vertex -0.371572 -0.334566 -1
    endloop
  endfacet
  facet normal 0 0 -1
    outer loop
      vertex -0.404509 -0.293893 -1
      vertex -0.404509 0.293892 -1
      vertex -0.371572 0.334565 -1
    endloop
  endfacet
  facet normal 0 0 -1
    outer loop
      vertex -0.433013 -0.25 -1
      vertex -0.404509 0.293892 -1
      vertex -0.404509 -0.293893 -1
    endloop
  endfacet
  facet normal 0 0 -1
    outer loop
      vertex -0.433013 -0.25 -1
      vertex -0.433013 0.25 -1
      vertex -0.404509 0.293892 -1
    endloop
  endfacet
  facet normal 0 0 -1
    outer loop
      vertex -0.456773 -0.203369 -1
      vertex -0.433013 0.25 -1
      vertex -0.433013 -0.25 -1
    endloop
  endfacet
  facet normal 0 0 -1
    outer loop
      vertex -0.456773 -0.203369 -1
      vertex -0.456773 0.203368 -1
      vertex -0.433013 0.25 -1
    endloop
  endfacet
  facet normal 0 0 -1
    outer loop
      vertex -0.475529 -0.154509 -1
      vertex -0.456773 0.203368 -1
      vertex -0.456773 -0.203369 -1
    endloop
  endfacet
  facet normal 0 0 -1
    outer loop
      vertex -0.475529 -0.154509 -1
      vertex -0.475529 0.154508 -1
      vertex -0.456773 0.203368 -1
    endloop
  endfacet
  facet normal 0 0 -1
    outer loop
      vertex -0.489075 -0.103956 -1
      vertex -0.475529 0.154508 -1
      vertex -0.475529 -0.154509 -1
    endloop
  endfacet
  facet normal 0 0 -1
    outer loop
      vertex -0.489075 -0.103956 -1
      vertex -0.489075 0.103955 -1
      vertex -0.475529 0.154508 -1
    endloop
  endfacet
  facet normal 0 0 -1
    outer loop
      vertex -0.497261 -0.0522652 -1
      vertex -0.489075 0.103955 -1
      vertex -0.489075 -0.103956 -1
    endloop
  endfacet
  facet normal 0 0 -1
    outer loop
      vertex -0.497261 -0.0522652 -1
      vertex -0.497261 0.0522642 -1
      vertex -0.489075 0.103955 -1
    endloop
  endfacet
  facet normal 0 -0 -1
    outer loop
      vertex -0.497261 0.0522642 -1
      vertex -0.497261 -0.0522652 -1
      vertex -0.5 0 -1
    endloop
  endfacet
  facet normal -0.933578 0.358375 0
    outer loop
      vertex -0.475529 0.154508 -0.469713
      vertex -0.456773 0.203368 -1
      vertex -0.475529 0.154508 -1
    endloop
  endfacet
  facet normal -0.933578 0.358375 0
    outer loop
      vertex -0.456773 0.203368 -1
      vertex -0.475529 0.154508 -0.469713
      vertex -0.456773 0.203368 -0.442569
    endloop
  endfacet
  facet normal -0.99863 0.052335 0
    outer loop
      vertex -0.5 0 -1
      vertex -0.497261 0.0522642 -0.5
      vertex -0.497261 0.0522642 -1
    endloop
  endfacet
  facet normal -0.99863 0.052335 0
    outer loop
      vertex -0.497261 0.0522642 -0.5
      vertex -0.5 0 -1
      vertex -0.5 0 -0.5
    endloop
  endfacet
  facet normal -0.544633 0.838674 0
    outer loop
      vertex -0.25 0.433012 -1
      vertex -0.293893 0.404508 -0.330826
      vertex -0.25 0.433012 -0.31499
    endloop
  endfacet
  facet normal -0.544633 0.838674 0
    outer loop
      vertex -0.293893 0.404508 -0.330826
      vertex -0.25 0.433012 -1
      vertex -0.293893 0.404508 -1
    endloop
  endfacet
  facet normal -0.629316 0.777149 0
    outer loop
      vertex -0.293893 0.404508 -1
      vertex -0.334566 0.371572 -0.349123
      vertex -0.293893 0.404508 -0.330826
    endloop
  endfacet
  facet normal -0.629316 0.777149 0
    outer loop
      vertex -0.334566 0.371572 -0.349123
      vertex -0.293893 0.404508 -1
      vertex -0.334566 0.371572 -1
    endloop
  endfacet
  facet normal -0.258826 0.965924 0
    outer loop
      vertex -0.103956 0.489074 -1
      vertex -0.154509 0.475528 -0.291371
      vertex -0.103956 0.489074 -0.283845
    endloop
  endfacet
  facet normal -0.258826 0.965924 0
    outer loop
      vertex -0.154509 0.475528 -0.291371
      vertex -0.103956 0.489074 -1
      vertex -0.154509 0.475528 -1
    endloop
  endfacet
  facet normal 0.156415 -0.987691 0
    outer loop
      vertex 0.0522642 -0.497261 -1
      vertex 0.103955 -0.489075 -0.283845
      vertex 0.0522642 -0.497261 -0.279297
    endloop
  endfacet
  facet normal 0.156415 -0.987691 0
    outer loop
      vertex 0.103955 -0.489075 -0.283845
      vertex 0.0522642 -0.497261 -1
      vertex 0.103955 -0.489075 -1
    endloop
  endfacet
  facet normal 0.544642 -0.838669 0
    outer loop
      vertex 0.25 -0.433013 -1
      vertex 0.293892 -0.404509 -0.330825
      vertex 0.25 -0.433013 -0.31499
    endloop
  endfacet
  facet normal 0.544642 -0.838669 0
    outer loop
      vertex 0.293892 -0.404509 -0.330825
      vertex 0.25 -0.433013 -1
      vertex 0.293892 -0.404509 -1
    endloop
  endfacet
  facet normal 0.707097 -0.707116 0
    outer loop
      vertex 0.334565 -0.371572 -1
      vertex 0.371572 -0.334566 -0.369682
      vertex 0.334565 -0.371572 -0.349123
    endloop
  endfacet
  facet normal 0.707097 -0.707116 0
    outer loop
      vertex 0.371572 -0.334566 -0.369682
      vertex 0.334565 -0.371572 -1
      vertex 0.371572 -0.334566 -1
    endloop
  endfacet
  facet normal 0.777149 -0.629316 0
    outer loop
      vertex 0.371572 -0.334566 -1
      vertex 0.404508 -0.293893 -0.392278
      vertex 0.371572 -0.334566 -0.369682
    endloop
  endfacet
  facet normal 0.777149 -0.629316 0
    outer loop
      vertex 0.404508 -0.293893 -0.392278
      vertex 0.371572 -0.334566 -1
      vertex 0.404508 -0.293893 -1
    endloop
  endfacet
  facet normal 0.838674 -0.544633 0
    outer loop
      vertex 0.404508 -0.293893 -1
      vertex 0.433012 -0.25 -0.416662
      vertex 0.404508 -0.293893 -0.392278
    endloop
  endfacet
  facet normal 0.838674 -0.544633 0
    outer loop
      vertex 0.433012 -0.25 -0.416662
      vertex 0.404508 -0.293893 -1
      vertex 0.433012 -0.25 -1
    endloop
  endfacet
  facet normal -0.629328 -0.77714 0
    outer loop
      vertex -0.293893 -0.404509 -1
      vertex -0.334566 -0.371572 -0.349123
      vertex -0.334566 -0.371572 -1
    endloop
  endfacet
  facet normal -0.629328 -0.77714 0
    outer loop
      vertex -0.334566 -0.371572 -0.349123
      vertex -0.293893 -0.404509 -1
      vertex -0.293893 -0.404509 -0.330825
    endloop
  endfacet
  facet normal -0.544633 -0.838674 0
    outer loop
      vertex -0.25 -0.433013 -1
      vertex -0.293893 -0.404509 -0.330825
      vertex -0.293893 -0.404509 -1
    endloop
  endfacet
  facet normal -0.544633 -0.838674 0
    outer loop
      vertex -0.293893 -0.404509 -0.330825
      vertex -0.25 -0.433013 -1
      vertex -0.25 -0.433013 -0.31499
    endloop
  endfacet
  facet normal -0.453995 -0.891004 0
    outer loop
      vertex -0.203369 -0.456773 -1
      vertex -0.25 -0.433013 -0.31499
      vertex -0.25 -0.433013 -1
    endloop
  endfacet
  facet normal -0.453995 -0.891004 0
    outer loop
      vertex -0.25 -0.433013 -0.31499
      vertex -0.203369 -0.456773 -1
      vertex -0.203369 -0.456773 -0.30179
    endloop
  endfacet
  facet normal -0.052334 -0.99863 0
    outer loop
      vertex 0 -0.5 -1
      vertex -0.0522652 -0.497261 -0.279297
      vertex -0.0522652 -0.497261 -1
    endloop
  endfacet
  facet normal -0.052334 -0.99863 0
    outer loop
      vertex -0.0522652 -0.497261 -0.279297
      vertex 0 -0.5 -1
      vertex 0 -0.5 -0.277775
    endloop
  endfacet
  facet normal -0.891004 -0.453995 0
    outer loop
      vertex -0.433013 -0.25 -1
      vertex -0.456773 -0.203369 -0.442568
      vertex -0.456773 -0.203369 -1
    endloop
  endfacet
  facet normal -0.891004 -0.453995 0
    outer loop
      vertex -0.456773 -0.203369 -0.442568
      vertex -0.433013 -0.25 -1
      vertex -0.433013 -0.25 -0.416662
    endloop
  endfacet
  facet normal -0.933578 -0.358375 0
    outer loop
      vertex -0.456773 -0.203369 -1
      vertex -0.475529 -0.154509 -0.469713
      vertex -0.475529 -0.154509 -1
    endloop
  endfacet
  facet normal -0.933578 -0.358375 0
    outer loop
      vertex -0.475529 -0.154509 -0.469713
      vertex -0.456773 -0.203369 -1
      vertex -0.456773 -0.203369 -0.442568
    endloop
  endfacet
  facet normal 0.258826 0.965924 0
    outer loop
      vertex 0.103955 0.489074 -1
      vertex 0.154508 0.475528 -0.291371
      vertex 0.154508 0.475528 -1
    endloop
  endfacet
  facet normal 0.258826 0.965924 0
    outer loop
      vertex 0.154508 0.475528 -0.291371
      vertex 0.103955 0.489074 -1
      vertex 0.103955 0.489074 -0.283845
    endloop
  endfacet
  facet normal -0.77714 0.629328 0
    outer loop
      vertex -0.404509 0.293892 -0.392278
      vertex -0.371572 0.334565 -1
      vertex -0.404509 0.293892 -1
    endloop
  endfacet
  facet normal -0.77714 0.629328 0
    outer loop
      vertex -0.371572 0.334565 -1
      vertex -0.404509 0.293892 -0.392278
      vertex -0.371572 0.334565 -0.369682
    endloop
  endfacet
  facet normal -0.965924 0.258826 0
    outer loop
      vertex -0.489075 0.103955 -0.497798
      vertex -0.475529 0.154508 -1
      vertex -0.489075 0.103955 -1
    endloop
  endfacet
  facet normal -0.965924 0.258826 0
    outer loop
      vertex -0.475529 0.154508 -1
      vertex -0.489075 0.103955 -0.497798
      vertex -0.475529 0.154508 -0.469713
    endloop
  endfacet
  facet normal -0.453995 0.891004 0
    outer loop
      vertex -0.203369 0.456772 -1
      vertex -0.25 0.433012 -0.31499
      vertex -0.203369 0.456772 -0.30179
    endloop
  endfacet
  facet normal -0.453995 0.891004 0
    outer loop
      vertex -0.25 0.433012 -0.31499
      vertex -0.203369 0.456772 -1
      vertex -0.25 0.433012 -1
    endloop
  endfacet
  facet normal 0.258826 -0.965924 0
    outer loop
      vertex 0.103955 -0.489075 -1
      vertex 0.154508 -0.475529 -0.29137
      vertex 0.103955 -0.489075 -0.283845
    endloop
  endfacet
  facet normal 0.258826 -0.965924 0
    outer loop
      vertex 0.154508 -0.475529 -0.29137
      vertex 0.103955 -0.489075 -1
      vertex 0.154508 -0.475529 -1
    endloop
  endfacet
  facet normal 0.453988 -0.891008 0
    outer loop
      vertex 0.203368 -0.456773 -1
      vertex 0.25 -0.433013 -0.31499
      vertex 0.203368 -0.456773 -0.30179
    endloop
  endfacet
  facet normal 0.453988 -0.891008 0
    outer loop
      vertex 0.25 -0.433013 -0.31499
      vertex 0.203368 -0.456773 -1
      vertex 0.25 -0.433013 -1
    endloop
  endfacet
  facet normal 0.629328 -0.77714 0
    outer loop
      vertex 0.293892 -0.404509 -1
      vertex 0.334565 -0.371572 -0.349123
      vertex 0.293892 -0.404509 -0.330825
    endloop
  endfacet
  facet normal 0.629328 -0.77714 0
    outer loop
      vertex 0.334565 -0.371572 -0.349123
      vertex 0.293892 -0.404509 -1
      vertex 0.334565 -0.371572 -1
    endloop
  endfacet
  facet normal 0.933578 -0.358375 0
    outer loop
      vertex 0.456772 -0.203369 -1
      vertex 0.475528 -0.154509 -0.469713
      vertex 0.456772 -0.203369 -0.442568
    endloop
  endfacet
  facet normal 0.933578 -0.358375 0
    outer loop
      vertex 0.475528 -0.154509 -0.469713
      vertex 0.456772 -0.203369 -1
      vertex 0.475528 -0.154509 -1
    endloop
  endfacet
  facet normal 0.987692 -0.156414 0
    outer loop
      vertex 0.489702 -0.0999908 -0.5
      vertex 0.49726 -0.0522652 -1
      vertex 0.49726 -0.0522652 -0.5
    endloop
  endfacet
  facet normal 0.987689 -0.156428 0
    outer loop
      vertex 0.489074 -0.103956 -1
      vertex 0.489702 -0.0999908 -0.5
      vertex 0.489074 -0.103956 -0.497797
    endloop
  endfacet
  facet normal 0.987691 -0.156415 -1.02998e-07
    outer loop
      vertex 0.489702 -0.0999908 -0.5
      vertex 0.489074 -0.103956 -1
      vertex 0.49726 -0.0522652 -1
    endloop
  endfacet
  facet normal 0.998629 -0.052353 0
    outer loop
      vertex 0.49726 -0.0522652 -0.5
      vertex 0.5 0 -1
      vertex 0.5 0 -0.5
    endloop
  endfacet
  facet normal 0.998629 -0.052353 0
    outer loop
      vertex 0.5 0 -1
      vertex 0.49726 -0.0522652 -0.5
      vertex 0.49726 -0.0522652 -1
    endloop
  endfacet
  facet normal -0.358375 -0.933578 0
    outer loop
      vertex -0.154509 -0.475529 -1
      vertex -0.203369 -0.456773 -0.30179
      vertex -0.203369 -0.456773 -1
    endloop
  endfacet
  facet normal -0.358375 -0.933578 0
    outer loop
      vertex -0.203369 -0.456773 -0.30179
      vertex -0.154509 -0.475529 -1
      vertex -0.154509 -0.475529 -0.29137
    endloop
  endfacet
  facet normal -0.156415 -0.987691 0
    outer loop
      vertex -0.0522652 -0.497261 -1
      vertex -0.103956 -0.489075 -0.283845
      vertex -0.103956 -0.489075 -1
    endloop
  endfacet
  facet normal -0.156415 -0.987691 0
    outer loop
      vertex -0.103956 -0.489075 -0.283845
      vertex -0.0522652 -0.497261 -1
      vertex -0.0522652 -0.497261 -0.279297
    endloop
  endfacet
  facet normal -0.838674 -0.544633 0
    outer loop
      vertex -0.404509 -0.293893 -1
      vertex -0.433013 -0.25 -0.416662
      vertex -0.433013 -0.25 -1
    endloop
  endfacet
  facet normal -0.838674 -0.544633 0
    outer loop
      vertex -0.433013 -0.25 -0.416662
      vertex -0.404509 -0.293893 -1
      vertex -0.404509 -0.293893 -0.392278
    endloop
  endfacet
  facet normal 0 1 -0
    outer loop
      vertex 0.5 1 0
      vertex -0.5 1 0.0249939
      vertex 0.5 1 0.0249939
    endloop
  endfacet
  facet normal 0 1 0
    outer loop
      vertex -0.5 1 0.0249939
      vertex 0.5 1 0
      vertex -0.5 1 0
    endloop
  endfacet
  facet normal -1 0 0
    outer loop
      vertex -0.5 0.0999908 -0.5
      vertex -0.5 1 0.0249939
      vertex -0.5 1 0
    endloop
  endfacet
  facet normal -1 0 0
    outer loop
      vertex -0.5 0 -0.5
      vertex -0.5 1 0.0249939
      vertex -0.5 0.0999908 -0.5
    endloop
  endfacet
  facet normal -1 0 0
    outer loop
      vertex -0.5 -1 0.0249939
      vertex -0.5 0 -0.5
      vertex -0.5 -0.0999908 -0.5
    endloop
  endfacet
  facet normal -1 0 0
    outer loop
      vertex -0.5 -1 0.0249939
      vertex -0.5 -0.0999908 -0.5
      vertex -0.5 -1 0
    endloop
  endfacet
  facet normal -1 0 0
    outer loop
      vertex -0.5 0 -0.5
      vertex -0.5 -1 0.0249939
      vertex -0.5 1 0.0249939
    endloop
  endfacet
  facet normal 0 -1 0
    outer loop
      vertex -0.5 -1 0
      vertex 0.5 -1 0.0249939
      vertex -0.5 -1 0.0249939
    endloop
  endfacet
  facet normal 0 -1 -0
    outer loop
      vertex 0.5 -1 0.0249939
      vertex -0.5 -1 0
      vertex 0.5 -1 0
    endloop
  endfacet
  facet normal -0 0 1
    outer loop
      vertex -0.5 1 0.0249939
      vertex 0.5 -1 0.0249939
      vertex 0.5 1 0.0249939
    endloop
  endfacet
  facet normal 0 0 1
    outer loop
      vertex 0.5 -1 0.0249939
      vertex -0.5 1 0.0249939
      vertex -0.5 -1 0.0249939
    endloop
  endfacet
  facet normal 0 0.485587 -0.874188
    outer loop
      vertex 0.489074 0.103955 -0.497798
      vertex 0.5 0.0999908 -0.5
      vertex 0.489702 0.0999908 -0.5
    endloop
  endfacet
  facet normal 2.95409e-05 0.485649 -0.874154
    outer loop
      vertex 0.475528 0.154508 -0.469713
      vertex 0.5 0.0999908 -0.5
      vertex 0.489074 0.103955 -0.497798
    endloop
  endfacet
  facet normal 8.47749e-07 0.485639 -0.874159
    outer loop
      vertex 0.5 0.0999908 -0.5
      vertex 0.475528 0.154508 -0.469713
      vertex 0.5 1 0
    endloop
  endfacet
  facet normal 7.29581e-06 0.485639 -0.874159
    outer loop
      vertex 0.456772 0.203368 -0.442569
      vertex 0.5 1 0
      vertex 0.475528 0.154508 -0.469713
    endloop
  endfacet
  facet normal -1.95175e-05 0.48564 -0.874159
    outer loop
      vertex 0.433012 0.25 -0.416662
      vertex 0.5 1 0
      vertex 0.456772 0.203368 -0.442569
    endloop
  endfacet
  facet normal 4.61929e-06 0.485638 -0.87416
    outer loop
      vertex 0.404508 0.293892 -0.392278
      vertex 0.5 1 0
      vertex 0.433012 0.25 -0.416662
    endloop
  endfacet
  facet normal -3.00425e-06 0.485639 -0.874159
    outer loop
      vertex 0.371572 0.334565 -0.369682
      vertex 0.5 1 0
      vertex 0.404508 0.293892 -0.392278
    endloop
  endfacet
  facet normal 4.2731e-06 0.485638 -0.87416
    outer loop
      vertex 0.334565 0.371572 -0.349123
      vertex 0.5 1 0
      vertex 0.371572 0.334565 -0.369682
    endloop
  endfacet
  facet normal 1.03745e-05 0.485637 -0.874161
    outer loop
      vertex 0.293892 0.404508 -0.330826
      vertex 0.5 1 0
      vertex 0.334565 0.371572 -0.349123
    endloop
  endfacet
  facet normal -9.47574e-06 0.485642 -0.874158
    outer loop
      vertex 0.25 0.433012 -0.31499
      vertex 0.5 1 0
      vertex 0.293892 0.404508 -0.330826
    endloop
  endfacet
  facet normal -2.13817e-06 0.48564 -0.874159
    outer loop
      vertex 0.203368 0.456772 -0.30179
      vertex 0.5 1 0
      vertex 0.25 0.433012 -0.31499
    endloop
  endfacet
  facet normal 1.30885e-05 0.485633 -0.874163
    outer loop
      vertex 0.154508 0.475528 -0.291371
      vertex 0.5 1 0
      vertex 0.203368 0.456772 -0.30179
    endloop
  endfacet
  facet normal -7.418e-06 0.485644 -0.874157
    outer loop
      vertex 0.103955 0.489074 -0.283845
      vertex 0.5 1 0
      vertex 0.154508 0.475528 -0.291371
    endloop
  endfacet
  facet normal -4.01753e-06 0.485642 -0.874158
    outer loop
      vertex 0.0522642 0.49726 -0.279297
      vertex 0.5 1 0
      vertex 0.103955 0.489074 -0.283845
    endloop
  endfacet
  facet normal 3.28977e-06 0.485637 -0.874161
    outer loop
      vertex 0 0.5 -0.277775
      vertex 0.5 1 0
      vertex 0.0522642 0.49726 -0.279297
    endloop
  endfacet
  facet normal -3.28971e-06 0.485637 -0.874161
    outer loop
      vertex -0.5 1 0
      vertex 0 0.5 -0.277775
      vertex -0.0522652 0.49726 -0.279297
    endloop
  endfacet
  facet normal 4.01753e-06 0.485642 -0.874158
    outer loop
      vertex -0.5 1 0
      vertex -0.0522652 0.49726 -0.279297
      vertex -0.103956 0.489074 -0.283845
    endloop
  endfacet
  facet normal 7.418e-06 0.485644 -0.874157
    outer loop
      vertex -0.5 1 0
      vertex -0.103956 0.489074 -0.283845
      vertex -0.154509 0.475528 -0.291371
    endloop
  endfacet
  facet normal -1.30885e-05 0.485633 -0.874163
    outer loop
      vertex -0.5 1 0
      vertex -0.154509 0.475528 -0.291371
      vertex -0.203369 0.456772 -0.30179
    endloop
  endfacet
  facet normal 2.1382e-06 0.48564 -0.874159
    outer loop
      vertex -0.5 1 0
      vertex -0.203369 0.456772 -0.30179
      vertex -0.25 0.433012 -0.31499
    endloop
  endfacet
  facet normal 9.47557e-06 0.485642 -0.874158
    outer loop
      vertex -0.5 1 0
      vertex -0.25 0.433012 -0.31499
      vertex -0.293893 0.404508 -0.330826
    endloop
  endfacet
  facet normal 0 0.485587 -0.874188
    outer loop
      vertex -0.5 0.0999908 -0.5
      vertex -0.489075 0.103955 -0.497798
      vertex -0.489703 0.0999908 -0.5
    endloop
  endfacet
  facet normal -2.95439e-05 0.485649 -0.874154
    outer loop
      vertex -0.5 0.0999908 -0.5
      vertex -0.475529 0.154508 -0.469713
      vertex -0.489075 0.103955 -0.497798
    endloop
  endfacet
  facet normal 4.01071e-05 0.485625 -0.874167
    outer loop
      vertex -0.5 0.0999908 -0.5
      vertex -0.456773 0.203368 -0.442569
      vertex -0.475529 0.154508 -0.469713
    endloop
  endfacet
  facet normal 0 0.485639 -0.874159
    outer loop
      vertex 0 0.5 -0.277775
      vertex -0.5 1 0
      vertex 0.5 1 0
    endloop
  endfacet
  facet normal -1.03745e-05 0.485637 -0.874161
    outer loop
      vertex -0.334566 0.371572 -0.349123
      vertex -0.5 1 0
      vertex -0.293893 0.404508 -0.330826
    endloop
  endfacet
  facet normal -4.2732e-06 0.485638 -0.87416
    outer loop
      vertex -0.371572 0.334565 -0.369682
      vertex -0.5 1 0
      vertex -0.334566 0.371572 -0.349123
    endloop
  endfacet
  facet normal 3.00418e-06 0.485639 -0.874159
    outer loop
      vertex -0.404509 0.293892 -0.392278
      vertex -0.5 1 0
      vertex -0.371572 0.334565 -0.369682
    endloop
  endfacet
  facet normal -4.6193e-06 0.485638 -0.87416
    outer loop
      vertex -0.433013 0.25 -0.416662
      vertex -0.5 1 0
      vertex -0.404509 0.293892 -0.392278
    endloop
  endfacet
  facet normal 1.95176e-05 0.48564 -0.874159
    outer loop
      vertex -0.456773 0.203368 -0.442569
      vertex -0.5 1 0
      vertex -0.433013 0.25 -0.416662
    endloop
  endfacet
  facet normal -3.85651e-06 0.485639 -0.874159
    outer loop
      vertex -0.5 1 0
      vertex -0.456773 0.203368 -0.442569
      vertex -0.5 0.0999908 -0.5
    endloop
  endfacet
  facet normal 1 0 0
    outer loop
      vertex 0.5 1 0.0249939
      vertex 0.5 0.0999908 -0.5
      vertex 0.5 1 0
    endloop
  endfacet
  facet normal 1 0 0
    outer loop
      vertex 0.5 1 0.0249939
      vertex 0.5 0 -0.5
      vertex 0.5 0.0999908 -0.5
    endloop
  endfacet
  facet normal 1 -0 0
    outer loop
      vertex 0.5 -1 0.0249939
      vertex 0.5 0 -0.5
      vertex 0.5 1 0.0249939
    endloop
  endfacet
  facet normal 1 0 0
    outer loop
      vertex 0.5 0 -0.5
      vertex 0.5 -1 0.0249939
      vertex 0.5 -0.0999908 -0.5
    endloop
  endfacet
  facet normal 1 0 0
    outer loop
      vertex 0.5 -0.0999908 -0.5
      vertex 0.5 -1 0.0249939
      vertex 0.5 -1 0
    endloop
  endfacet
  facet normal 0 0 -1
    outer loop
      vertex 0.49726 0.0522642 -0.5
      vertex 0.5 0.0999908 -0.5
      vertex 0.5 0 -0.5
    endloop
  endfacet
  facet normal -0 0 -1
    outer loop
      vertex 0.5 0.0999908 -0.5
      vertex 0.49726 0.0522642 -0.5
      vertex 0.489702 0.0999908 -0.5
    endloop
  endfacet
  facet normal 0 0 -1
    outer loop
      vertex -0.497261 0.0522642 -0.5
      vertex -0.5 0.0999908 -0.5
      vertex -0.489703 0.0999908 -0.5
    endloop
  endfacet
  facet normal 0 0 -1
    outer loop
      vertex -0.5 0.0999908 -0.5
      vertex -0.497261 0.0522642 -0.5
      vertex -0.5 0 -0.5
    endloop
  endfacet
  facet normal 0 0 -1
    outer loop
      vertex -0.5 -0.0999908 -0.5
      vertex -0.497261 -0.0522652 -0.5
      vertex -0.489703 -0.0999908 -0.5
    endloop
  endfacet
  facet normal -0 0 -1
    outer loop
      vertex -0.497261 -0.0522652 -0.5
      vertex -0.5 -0.0999908 -0.5
      vertex -0.5 0 -0.5
    endloop
  endfacet
  facet normal 0 0 -1
    outer loop
      vertex 0.5 -0.0999908 -0.5
      vertex 0.49726 -0.0522652 -0.5
      vertex 0.5 0 -0.5
    endloop
  endfacet
  facet normal 0 -0 -1
    outer loop
      vertex 0.49726 -0.0522652 -0.5
      vertex 0.5 -0.0999908 -0.5
      vertex 0.489702 -0.0999908 -0.5
    endloop
  endfacet
  facet normal 2.06924e-05 -0.485639 -0.874159
    outer loop
      vertex 0.475528 -0.154509 -0.469713
      vertex 0.5 -0.0999908 -0.5
      vertex 0.5 -1 0
    endloop
  endfacet
  facet normal -0 -0.485662 -0.874147
    outer loop
      vertex 0.5 -0.0999908 -0.5
      vertex 0.489074 -0.103956 -0.497797
      vertex 0.489702 -0.0999908 -0.5
    endloop
  endfacet
  facet normal -1.67989e-05 -0.485626 -0.874167
    outer loop
      vertex 0.5 -0.0999908 -0.5
      vertex 0.475528 -0.154509 -0.469713
      vertex 0.489074 -0.103956 -0.497797
    endloop
  endfacet
  facet normal -3.46519e-05 -0.48564 -0.874159
    outer loop
      vertex 0.5 -1 0
      vertex 0.456772 -0.203369 -0.442568
      vertex 0.475528 -0.154509 -0.469713
    endloop
  endfacet
  facet normal -5.60456e-06 -0.485639 -0.874159
    outer loop
      vertex 0.5 -1 0
      vertex 0.433012 -0.25 -0.416662
      vertex 0.456772 -0.203369 -0.442568
    endloop
  endfacet
  facet normal 1.95969e-05 -0.485637 -0.87416
    outer loop
      vertex 0.5 -1 0
      vertex 0.404508 -0.293893 -0.392278
      vertex 0.433012 -0.25 -0.416662
    endloop
  endfacet
  facet normal -2.27646e-06 -0.48564 -0.874159
    outer loop
      vertex 0.5 -1 0
      vertex 0.371572 -0.334566 -0.369682
      vertex 0.404508 -0.293893 -0.392278
    endloop
  endfacet
  facet normal -6.11512e-06 -0.48564 -0.874159
    outer loop
      vertex 0.5 -1 0
      vertex 0.334565 -0.371572 -0.349123
      vertex 0.371572 -0.334566 -0.369682
    endloop
  endfacet
  facet normal 2.5007e-06 -0.485639 -0.87416
    outer loop
      vertex 0.5 -1 0
      vertex 0.293892 -0.404509 -0.330825
      vertex 0.334565 -0.371572 -0.349123
    endloop
  endfacet
  facet normal 6.43942e-06 -0.485637 -0.87416
    outer loop
      vertex 0.5 -1 0
      vertex 0.25 -0.433013 -0.31499
      vertex 0.293892 -0.404509 -0.330825
    endloop
  endfacet
  facet normal -1.78181e-06 -0.48564 -0.874159
    outer loop
      vertex 0.5 -1 0
      vertex 0.203368 -0.456773 -0.30179
      vertex 0.25 -0.433013 -0.31499
    endloop
  endfacet
  facet normal -1.41855e-06 -0.48564 -0.874159
    outer loop
      vertex 0.5 -1 0
      vertex 0.154508 -0.475529 -0.29137
      vertex 0.203368 -0.456773 -0.30179
    endloop
  endfacet
  facet normal 7.11088e-06 -0.485636 -0.874161
    outer loop
      vertex 0.5 -1 0
      vertex 0.103955 -0.489075 -0.283845
      vertex 0.154508 -0.475529 -0.29137
    endloop
  endfacet
  facet normal -3.88346e-06 -0.485642 -0.874158
    outer loop
      vertex 0.5 -1 0
      vertex 0.0522642 -0.497261 -0.279297
      vertex 0.103955 -0.489075 -0.283845
    endloop
  endfacet
  facet normal -5.53945e-06 -0.485643 -0.874157
    outer loop
      vertex 0.5 -1 0
      vertex 0 -0.5 -0.277775
      vertex 0.0522642 -0.497261 -0.279297
    endloop
  endfacet
  facet normal 0 -0.485639 -0.874159
    outer loop
      vertex -0.5 -1 0
      vertex 0 -0.5 -0.277775
      vertex 0.5 -1 0
    endloop
  endfacet
  facet normal 5.53935e-06 -0.485643 -0.874157
    outer loop
      vertex 0 -0.5 -0.277775
      vertex -0.5 -1 0
      vertex -0.0522652 -0.497261 -0.279297
    endloop
  endfacet
  facet normal 3.88346e-06 -0.485642 -0.874158
    outer loop
      vertex -0.0522652 -0.497261 -0.279297
      vertex -0.5 -1 0
      vertex -0.103956 -0.489075 -0.283845
    endloop
  endfacet
  facet normal -7.11088e-06 -0.485636 -0.874161
    outer loop
      vertex -0.103956 -0.489075 -0.283845
      vertex -0.5 -1 0
      vertex -0.154509 -0.475529 -0.29137
    endloop
  endfacet
  facet normal 1.41855e-06 -0.48564 -0.874159
    outer loop
      vertex -0.154509 -0.475529 -0.29137
      vertex -0.5 -1 0
      vertex -0.203369 -0.456773 -0.30179
    endloop
  endfacet
  facet normal 1.78184e-06 -0.48564 -0.874159
    outer loop
      vertex -0.203369 -0.456773 -0.30179
      vertex -0.5 -1 0
      vertex -0.25 -0.433013 -0.31499
    endloop
  endfacet
  facet normal -6.43931e-06 -0.485637 -0.87416
    outer loop
      vertex -0.25 -0.433013 -0.31499
      vertex -0.5 -1 0
      vertex -0.293893 -0.404509 -0.330825
    endloop
  endfacet
  facet normal -2.5007e-06 -0.485639 -0.87416
    outer loop
      vertex -0.5 -1 0
      vertex -0.334566 -0.371572 -0.349123
      vertex -0.293893 -0.404509 -0.330825
    endloop
  endfacet
  facet normal 6.11525e-06 -0.48564 -0.874159
    outer loop
      vertex -0.5 -1 0
      vertex -0.371572 -0.334566 -0.369682
      vertex -0.334566 -0.371572 -0.349123
    endloop
  endfacet
  facet normal 2.27641e-06 -0.48564 -0.874159
    outer loop
      vertex -0.5 -1 0
      vertex -0.404509 -0.293893 -0.392278
      vertex -0.371572 -0.334566 -0.369682
    endloop
  endfacet
  facet normal -1.95969e-05 -0.485637 -0.87416
    outer loop
      vertex -0.5 -1 0
      vertex -0.433013 -0.25 -0.416662
      vertex -0.404509 -0.293893 -0.392278
    endloop
  endfacet
  facet normal 5.60457e-06 -0.485639 -0.874159
    outer loop
      vertex -0.5 -1 0
      vertex -0.456773 -0.203369 -0.442568
      vertex -0.433013 -0.25 -0.416662
    endloop
  endfacet
  facet normal 3.4652e-05 -0.48564 -0.874159
    outer loop
      vertex -0.5 -1 0
      vertex -0.475529 -0.154509 -0.469713
      vertex -0.456773 -0.203369 -0.442568
    endloop
  endfacet
  facet normal -2.06933e-05 -0.485639 -0.874159
    outer loop
      vertex -0.5 -0.0999908 -0.5
      vertex -0.475529 -0.154509 -0.469713
      vertex -0.5 -1 0
    endloop
  endfacet
  facet normal 1.68006e-05 -0.485626 -0.874167
    outer loop
      vertex -0.475529 -0.154509 -0.469713
      vertex -0.5 -0.0999908 -0.5
      vertex -0.489075 -0.103956 -0.497797
    endloop
  endfacet
  facet normal 0 -0.485662 -0.874147
    outer loop
      vertex -0.489075 -0.103956 -0.497797
      vertex -0.5 -0.0999908 -0.5
      vertex -0.489703 -0.0999908 -0.5
    endloop
  endfacet
endsolid OpenSCAD_Model
